<svg width="21" height="22" viewBox="0 0 21 22" fill="none" xmlns="http://www.w3.org/2000/svg">
<path d="M19.125 3.31543H15.1875V1.81543C15.1875 1.7123 15.1031 1.62793 15 1.62793H13.6875C13.5844 1.62793 13.5 1.7123 13.5 1.81543V3.31543H7.5V1.81543C7.5 1.7123 7.41563 1.62793 7.3125 1.62793H6C5.89688 1.62793 5.8125 1.7123 5.8125 1.81543V3.31543H1.875C1.46016 3.31543 1.125 3.65059 1.125 4.06543V19.6279C1.125 20.0428 1.46016 20.3779 1.875 20.3779H19.125C19.5398 20.3779 19.875 20.0428 19.875 19.6279V4.06543C19.875 3.65059 19.5398 3.31543 19.125 3.31543ZM18.1875 18.6904H2.8125V9.78418H18.1875V18.6904ZM2.8125 8.19043V5.00293H5.8125V6.12793C5.8125 6.23106 5.89688 6.31543 6 6.31543H7.3125C7.41563 6.31543 7.5 6.23106 7.5 6.12793V5.00293H13.5V6.12793C13.5 6.23106 13.5844 6.31543 13.6875 6.31543H15C15.1031 6.31543 15.1875 6.23106 15.1875 6.12793V5.00293H18.1875V8.19043H2.8125Z" fill="white"/>
<path fill-rule="evenodd" clip-rule="evenodd" d="M9.95756 11.1509C9.79187 11.1509 9.65756 11.2852 9.65756 11.4509V13.2273H7.88105C7.71537 13.2273 7.58105 13.3616 7.58105 13.5273V14.6126C7.58105 14.7783 7.71537 14.9126 7.88105 14.9126H9.65756V16.6892C9.65756 16.8549 9.79187 16.9892 9.95756 16.9892H11.0428C11.2085 16.9892 11.3428 16.8549 11.3428 16.6892V14.9126H13.1193C13.285 14.9126 13.4193 14.7783 13.4193 14.6126V13.5273C13.4193 13.3616 13.285 13.2273 13.1193 13.2273H11.3428V11.4509C11.3428 11.2852 11.2085 11.1509 11.0428 11.1509H9.95756Z" fill="white"/>
</svg>
