<?xml version="1.0" encoding="utf-8"?>
<!-- Generator: Adobe Illustrator 24.0.0, SVG Export Plug-In . SVG Version: 6.00 Build 0)  -->
<svg version="1.1" id="Слой_1" xmlns="http://www.w3.org/2000/svg" xmlns:xlink="http://www.w3.org/1999/xlink" x="0px" y="0px"
	 viewBox="0 0 305.9 43.2" style="enable-background:new 0 0 305.9 43.2;" xml:space="preserve">
<g>
	<path d="M59,5h5.7C66.1,5,67.2,5,68,5.2c0.8,0.2,1.4,0.5,1.8,1c0.4,0.5,0.6,1.1,0.6,2v2.7c0,0.9-0.2,1.7-0.6,2.2
		c-0.4,0.5-1,0.9-1.9,1.1c-0.9,0.2-2,0.3-3.5,0.3h-1.9v4.6H59V5z M64.6,12.2c0.9,0,1.5-0.1,1.9-0.3c0.4-0.2,0.5-0.6,0.5-1.1V8.5
		c0-0.5-0.2-0.8-0.5-0.9c-0.3-0.1-1-0.2-2-0.2h-2.1v4.8H64.6z"/>
	<path d="M72.9,19.2v-2.5c0.3,0.1,0.6,0.1,0.9,0.2c0.3,0.1,0.6,0.1,0.9,0.1c0.4,0,0.8-0.1,1-0.3c0.3-0.2,0.5-0.5,0.7-0.9l0.3-0.6
		L71.3,5h3.6l3.6,7.2h0.1L81.4,5h3.5l-5.2,11.5c-0.5,1.1-1.1,1.8-1.8,2.3c-0.7,0.5-1.7,0.7-3,0.7C74.3,19.4,73.7,19.4,72.9,19.2z"/>
	<path d="M90.7,19.4c-0.5-0.1-1.1-0.2-1.7-0.3c-0.7-0.2-1.2-0.4-1.7-0.7c-0.4-0.3-0.8-0.7-1.1-1.2c-0.3-0.5-0.5-1.1-0.5-1.8V9
		c0-2.9,2.2-4.3,6.6-4.3c1.1,0,2.6,0.2,4.5,0.5v2.6c-1.7-0.4-3.2-0.6-4.5-0.6c-0.5,0-1,0-1.3,0c-0.3,0-0.6,0.1-0.9,0.2
		c-0.7,0.2-1,0.8-1,1.6v6.1c0,1.3,1.2,1.9,3.5,1.9c1,0,2.4-0.2,4.3-0.6V19c-1.6,0.3-3.1,0.5-4.6,0.5C91.8,19.4,91.2,19.4,90.7,19.4z
		"/>
	<path d="M102.6,7.4h-4.4V5h12.2v2.4H106v11.8h-3.4V7.4z"/>
	<path d="M116.1,5h4.2l5.1,14.3H122l-1.3-3.8h-5.2l-1.3,3.8h-3.4L116.1,5z M120,13.2l-1.8-5.4h-0.1l-1.8,5.4H120z"/>
	<path d="M127,5h4.9l3.5,10.2L138.9,5h4.6v14.3h-3.1V8.7h-0.1l-3.6,10.6H134l-3.7-10.6h-0.1v10.6H127V5z"/>
	<path d="M155.6,11.9l-5-7h4l3.1,4.8l3-4.8h4l-5,7l5.3,7.3h-4l-3.3-5.1l-3.3,5.1h-4L155.6,11.9z"/>
	<path d="M170.3,5h4.2l5.1,14.3h-3.5l-1.3-3.8h-5.2l-1.3,3.8h-3.4L170.3,5z M174.2,13.2l-1.8-5.4h-0.1l-1.8,5.4H174.2z"/>
	<path d="M181.3,19.3c-0.3-0.1-0.5-0.1-0.6-0.1v-2.7c0.3,0,0.6,0.1,0.8,0.1c0.7,0,1.3-0.2,1.7-0.6c0.4-0.4,0.7-1.3,0.9-2.5
		c0.2-1.2,0.3-3.1,0.3-5.7V5h10.4v14.3h-3.4V7.4h-3.9v2c0,2.7-0.2,4.8-0.7,6.3c-0.5,1.5-1.1,2.5-1.9,3c-0.8,0.5-1.7,0.8-2.8,0.8
		C181.8,19.4,181.5,19.4,181.3,19.3z"/>
	<path d="M197.8,5h3.4v9.8l6.2-9.8h3.4v14.3h-3.4V9.3l-6.2,9.9h-3.4V5z"/>
	<path d="M213.9,19.3c-0.3-0.1-0.5-0.1-0.6-0.1v-2.7c0.3,0,0.6,0.1,0.8,0.1c0.7,0,1.3-0.2,1.7-0.6c0.4-0.4,0.7-1.3,0.9-2.5
		c0.2-1.2,0.3-3.1,0.3-5.7V5h10.4v14.3h-3.4V7.4h-3.9v2c0,2.7-0.2,4.8-0.7,6.3c-0.5,1.5-1.1,2.5-1.9,3c-0.8,0.5-1.7,0.8-2.8,0.8
		C214.4,19.4,214.2,19.4,213.9,19.3z"/>
	<path d="M230.6,19.2v-2.5c0.3,0.1,0.6,0.1,0.9,0.2c0.3,0.1,0.6,0.1,0.9,0.1c0.4,0,0.8-0.1,1-0.3c0.3-0.2,0.5-0.5,0.7-0.9l0.3-0.6
		L229,5h3.6l3.6,7.2h0.1L239,5h3.5l-5.2,11.5c-0.5,1.1-1.1,1.8-1.8,2.3c-0.7,0.5-1.7,0.7-3,0.7C232,19.4,231.3,19.4,230.6,19.2z"/>
	<path d="M243.8,19.3c-0.3-0.1-0.5-0.1-0.6-0.1v-2.7c0.3,0,0.6,0.1,0.8,0.1c0.7,0,1.3-0.2,1.7-0.6c0.4-0.4,0.7-1.3,0.9-2.5
		c0.2-1.2,0.3-3.1,0.3-5.7V5h10.4v14.3h-3.4V7.4H250v2c0,2.7-0.2,4.8-0.7,6.3c-0.5,1.5-1.1,2.5-1.9,3c-0.8,0.5-1.7,0.8-2.8,0.8
		C244.3,19.4,244.1,19.4,243.8,19.3z"/>
	<path d="M260.4,19.3c-0.3-0.1-0.5-0.1-0.6-0.1v-2.7c0.3,0,0.6,0.1,0.8,0.1c0.7,0,1.3-0.2,1.7-0.6c0.4-0.4,0.7-1.3,0.9-2.5
		c0.2-1.2,0.3-3.1,0.3-5.7V5h10.4v14.3h-3.4V7.4h-3.9v2c0,2.7-0.2,4.8-0.7,6.3c-0.5,1.5-1.1,2.5-1.9,3c-0.8,0.5-1.7,0.8-2.8,0.8
		C260.9,19.4,260.6,19.4,260.4,19.3z"/>
	<path d="M276.9,5h3.4v9.8l6.2-9.8h3.4v14.3h-3.4V9.3l-6.2,9.9h-3.4V5z"/>
	<path d="M293,5h3.4v5.7h6.1V5h3.4v14.3h-3.4v-6.1h-6.1v6.1H293V5z"/>
</g>
<g>
	<path d="M58.6,31.1h6.9v9.2h-0.7v-8.6h-5.6v8.6h-0.7V31.1z"/>
	<path d="M68.4,39.8c0.2,0,0.4-0.1,0.6-0.2c0.2-0.1,0.3-0.4,0.5-0.7c0.1-0.3,0.3-0.8,0.4-1.3s0.2-1.3,0.3-2.2l0.2-1.8h3.8v6.8h-0.6
		v-6.2h-2.5l-0.2,1.5c-0.1,0.9-0.2,1.7-0.4,2.3c-0.1,0.6-0.3,1.1-0.5,1.4s-0.4,0.6-0.6,0.8c-0.2,0.2-0.5,0.2-0.8,0.2L68.4,39.8z"/>
	<path d="M79.2,40.5c-0.3,0-0.6-0.1-0.9-0.2s-0.5-0.3-0.7-0.4c-0.2-0.2-0.4-0.4-0.5-0.7c-0.1-0.3-0.2-0.5-0.2-0.8
		c0-0.3,0.1-0.6,0.2-0.8c0.1-0.2,0.3-0.5,0.6-0.6s0.5-0.3,0.9-0.4s0.7-0.1,1.1-0.1c0.4,0,0.7,0,1.1,0.1c0.4,0.1,0.7,0.2,1,0.3v-0.7
		c0-0.6-0.2-1.2-0.5-1.5C81,34.2,80.5,34,79.9,34c-0.3,0-0.7,0.1-1,0.2s-0.7,0.3-1.1,0.6l-0.2-0.4c0.9-0.6,1.7-0.9,2.5-0.9
		c0.8,0,1.5,0.2,1.9,0.7c0.5,0.5,0.7,1.1,0.7,2v3.3c0,0.2,0.1,0.3,0.3,0.3v0.6c0,0-0.1,0-0.1,0c0,0-0.1,0-0.1,0
		c-0.2,0-0.3-0.1-0.4-0.2c-0.1-0.1-0.2-0.3-0.2-0.4v-0.6c-0.3,0.4-0.7,0.7-1.2,0.9C80.3,40.4,79.8,40.5,79.2,40.5z M79.4,39.9
		c0.5,0,1-0.1,1.4-0.3c0.4-0.2,0.7-0.4,1-0.8c0.1-0.2,0.2-0.4,0.2-0.5v-1.2c-0.3-0.1-0.6-0.2-1-0.3s-0.7-0.1-1.1-0.1
		c-0.3,0-0.6,0-0.9,0.1c-0.3,0.1-0.5,0.2-0.7,0.3c-0.2,0.1-0.4,0.3-0.5,0.5s-0.2,0.4-0.2,0.6c0,0.2,0,0.4,0.1,0.6
		c0.1,0.2,0.2,0.4,0.4,0.5c0.2,0.1,0.3,0.3,0.6,0.3C78.9,39.9,79.1,39.9,79.4,39.9z"/>
	<path d="M85.6,36.9c0-0.5,0.1-0.9,0.2-1.4c0.2-0.4,0.4-0.8,0.7-1.1c0.3-0.3,0.6-0.6,1.1-0.7c0.4-0.2,0.9-0.3,1.3-0.3
		c0.6,0,1.2,0.1,1.6,0.4s0.8,0.7,1.1,1.2l-0.6,0.2c-0.2-0.4-0.5-0.7-0.9-0.9c-0.4-0.2-0.8-0.3-1.2-0.3c-0.4,0-0.7,0.1-1,0.2
		c-0.3,0.1-0.6,0.4-0.8,0.6s-0.4,0.6-0.6,0.9c-0.1,0.4-0.2,0.7-0.2,1.1c0,0.4,0.1,0.8,0.2,1.2c0.1,0.4,0.3,0.7,0.6,0.9
		s0.5,0.5,0.8,0.6c0.3,0.2,0.7,0.2,1,0.2c0.2,0,0.5,0,0.7-0.1s0.4-0.2,0.6-0.3c0.2-0.1,0.4-0.2,0.5-0.4c0.1-0.2,0.2-0.3,0.3-0.5
		l0.6,0.2c-0.1,0.2-0.2,0.5-0.4,0.7c-0.2,0.2-0.4,0.4-0.6,0.5c-0.2,0.1-0.5,0.3-0.8,0.3c-0.3,0.1-0.6,0.1-0.9,0.1
		c-0.5,0-0.9-0.1-1.3-0.3c-0.4-0.2-0.8-0.4-1.1-0.8s-0.5-0.7-0.7-1.1C85.6,37.9,85.6,37.4,85.6,36.9z"/>
	<path d="M97,40.3h-0.6v-6.2h-2.5v-0.6h5.6v0.6H97V40.3z"/>
	<path d="M102.8,39.4l4.4-5.8h0.5v6.8h-0.7v-5.7l-4.3,5.7h-0.6v-6.8h0.6V39.4z"/>
	<path d="M115.4,40.3h-0.6v-2.9c-0.3,0.1-0.5,0.2-0.8,0.2c-0.3,0.1-0.6,0.1-1,0.1c-0.4,0-0.7-0.1-1-0.2s-0.5-0.3-0.7-0.5
		c-0.2-0.2-0.3-0.5-0.4-0.7s-0.1-0.6-0.1-1v-1.8h0.6v1.7c0,0.7,0.1,1.2,0.4,1.5s0.7,0.4,1.2,0.4c0.4,0,0.7,0,1-0.1s0.5-0.2,0.7-0.3
		v-3.2h0.6V40.3z"/>
	<path d="M121.8,40.5c-0.5,0-0.9-0.1-1.3-0.3c-0.4-0.2-0.8-0.4-1.1-0.8s-0.5-0.7-0.7-1.1c-0.2-0.4-0.3-0.9-0.3-1.4
		c0-0.5,0.1-0.9,0.3-1.3c0.2-0.4,0.4-0.8,0.7-1.1s0.6-0.6,1-0.7c0.4-0.2,0.8-0.3,1.3-0.3c0.5,0,0.9,0.1,1.3,0.3
		c0.4,0.2,0.8,0.4,1.1,0.8c0.3,0.3,0.5,0.7,0.7,1.1c0.2,0.4,0.2,0.9,0.2,1.3c0,0,0,0.1,0,0.2c0,0.1,0,0.1,0,0.1h-5.9
		c0,0.4,0.1,0.8,0.3,1.1s0.4,0.6,0.6,0.9c0.2,0.2,0.5,0.4,0.8,0.6c0.3,0.1,0.6,0.2,1,0.2c0.2,0,0.5,0,0.7-0.1
		c0.2-0.1,0.4-0.2,0.6-0.3c0.2-0.1,0.4-0.2,0.5-0.4c0.2-0.2,0.3-0.3,0.4-0.5l0.6,0.2c-0.1,0.2-0.2,0.5-0.4,0.7
		c-0.2,0.2-0.4,0.4-0.7,0.5s-0.5,0.3-0.8,0.3C122.4,40.4,122.1,40.5,121.8,40.5z M124.4,36.7c0-0.4-0.1-0.8-0.3-1.1
		s-0.3-0.6-0.6-0.9s-0.5-0.4-0.8-0.6c-0.3-0.1-0.6-0.2-1-0.2s-0.7,0.1-1,0.2c-0.3,0.1-0.6,0.3-0.8,0.6c-0.2,0.2-0.4,0.5-0.6,0.9
		c-0.1,0.3-0.2,0.7-0.3,1.1H124.4z"/>
	<path d="M127.5,36.9c0-0.5,0.1-0.9,0.2-1.4c0.2-0.4,0.4-0.8,0.7-1.1c0.3-0.3,0.6-0.6,1.1-0.7c0.4-0.2,0.9-0.3,1.3-0.3
		c0.6,0,1.2,0.1,1.6,0.4s0.8,0.7,1.1,1.2l-0.6,0.2c-0.2-0.4-0.5-0.7-0.9-0.9c-0.4-0.2-0.8-0.3-1.2-0.3c-0.4,0-0.7,0.1-1,0.2
		c-0.3,0.1-0.6,0.4-0.8,0.6s-0.4,0.6-0.6,0.9c-0.1,0.4-0.2,0.7-0.2,1.1c0,0.4,0.1,0.8,0.2,1.2c0.1,0.4,0.3,0.7,0.6,0.9
		c0.2,0.3,0.5,0.5,0.8,0.6c0.3,0.2,0.7,0.2,1,0.2c0.2,0,0.5,0,0.7-0.1s0.4-0.2,0.6-0.3c0.2-0.1,0.4-0.2,0.5-0.4
		c0.1-0.2,0.2-0.3,0.3-0.5l0.6,0.2c-0.1,0.2-0.2,0.5-0.4,0.7c-0.2,0.2-0.4,0.4-0.6,0.5c-0.2,0.1-0.5,0.3-0.8,0.3
		c-0.3,0.1-0.6,0.1-0.9,0.1c-0.5,0-0.9-0.1-1.3-0.3c-0.4-0.2-0.8-0.4-1.1-0.8s-0.5-0.7-0.7-1.1C127.6,37.9,127.5,37.4,127.5,36.9z"
		/>
	<path d="M140.5,33.6h0.8l-2.5,3.3l2.7,3.5h-0.7l-2.4-3.2h-1.1v3.2h-0.6v-6.8h0.6v3h1.1L140.5,33.6z"/>
	<path d="M144.7,39.4l4.4-5.8h0.5v6.8H149v-5.7l-4.3,5.7h-0.6v-6.8h0.6V39.4z"/>
	<path d="M153.8,39.4l4.4-5.8h0.5v6.8H158v-5.7l-4.3,5.7h-0.6v-6.8h0.6V39.4z M157.6,31.2c0,0.3-0.2,0.6-0.4,0.8
		c-0.3,0.2-0.7,0.3-1.2,0.3c-0.5,0-1-0.1-1.2-0.3c-0.3-0.2-0.4-0.5-0.4-0.8h0.4c0,0.2,0.1,0.4,0.3,0.5c0.2,0.1,0.5,0.2,0.9,0.2
		c0.4,0,0.7-0.1,0.9-0.2c0.2-0.1,0.3-0.3,0.3-0.5H157.6z"/>
	<path d="M166.9,33.6l2.2,2.8l0.1,0.2l0.1-0.2l2.2-2.8h0.7l-2.6,3.4l2.6,3.4h-0.7l-2.2-2.8l-0.1-0.2l-0.1,0.2l-2.2,2.8h-0.7l2.6-3.4
		l-2.6-3.4H166.9z"/>
	<path d="M175.6,39.4l4.4-5.8h0.5v6.8h-0.7v-5.7l-4.3,5.7h-0.6v-6.8h0.6V39.4z"/>
	<path d="M187.3,40.5c-0.6,0-1.1-0.2-1.6-0.5s-0.8-0.7-1.1-1.1v4.2H184v-9.5h0.6v1.4c0.3-0.4,0.6-0.8,1.1-1.1
		c0.5-0.3,0.9-0.4,1.5-0.4c0.5,0,0.9,0.1,1.3,0.3c0.4,0.2,0.7,0.5,1,0.8s0.5,0.7,0.7,1.1c0.2,0.4,0.2,0.9,0.2,1.3
		c0,0.5-0.1,0.9-0.2,1.3s-0.4,0.8-0.6,1.1c-0.3,0.3-0.6,0.6-1,0.8C188.2,40.4,187.7,40.5,187.3,40.5z M187.1,39.9
		c0.4,0,0.7-0.1,1.1-0.2c0.3-0.2,0.6-0.4,0.8-0.7c0.2-0.3,0.4-0.6,0.5-0.9c0.1-0.4,0.2-0.7,0.2-1.1c0-0.4-0.1-0.8-0.2-1.1
		c-0.1-0.4-0.3-0.7-0.6-0.9c-0.2-0.3-0.5-0.5-0.9-0.6c-0.3-0.2-0.7-0.2-1.1-0.2c-0.2,0-0.5,0-0.7,0.1s-0.5,0.2-0.7,0.4
		c-0.2,0.2-0.4,0.4-0.6,0.6c-0.2,0.2-0.3,0.4-0.3,0.7v2.2c0.1,0.3,0.3,0.5,0.4,0.7c0.2,0.2,0.4,0.4,0.6,0.6c0.2,0.2,0.5,0.3,0.7,0.4
		C186.6,39.8,186.9,39.9,187.1,39.9z"/>
	<path d="M193.4,42.4c0.2,0.2,0.5,0.3,0.7,0.3c0.1,0,0.2,0,0.3-0.1c0.1-0.1,0.2-0.2,0.3-0.4c0.1-0.2,0.2-0.4,0.4-0.7
		c0.1-0.3,0.3-0.7,0.5-1.1l-3-6.8h0.7l2.7,6.1l2.5-6.1h0.6l-3.3,8c-0.1,0.3-0.2,0.6-0.4,0.8c-0.1,0.2-0.2,0.4-0.4,0.5
		c-0.1,0.1-0.3,0.2-0.4,0.3c-0.1,0.1-0.3,0.1-0.5,0.1c-0.3,0-0.6-0.1-0.8-0.3L193.4,42.4z"/>
	<path d="M205.2,40.5c-0.6,0-1.1-0.2-1.6-0.5s-0.8-0.7-1.1-1.1v4.2h-0.6v-9.5h0.6v1.4c0.3-0.4,0.6-0.8,1.1-1.1
		c0.5-0.3,0.9-0.4,1.5-0.4c0.5,0,0.9,0.1,1.3,0.3c0.4,0.2,0.7,0.5,1,0.8s0.5,0.7,0.7,1.1c0.2,0.4,0.2,0.9,0.2,1.3
		c0,0.5-0.1,0.9-0.2,1.3s-0.4,0.8-0.6,1.1c-0.3,0.3-0.6,0.6-1,0.8C206.1,40.4,205.7,40.5,205.2,40.5z M205.1,39.9
		c0.4,0,0.7-0.1,1.1-0.2c0.3-0.2,0.6-0.4,0.8-0.7c0.2-0.3,0.4-0.6,0.5-0.9c0.1-0.4,0.2-0.7,0.2-1.1c0-0.4-0.1-0.8-0.2-1.1
		c-0.1-0.4-0.3-0.7-0.6-0.9c-0.2-0.3-0.5-0.5-0.9-0.6c-0.3-0.2-0.7-0.2-1.1-0.2c-0.2,0-0.5,0-0.7,0.1s-0.5,0.2-0.7,0.4
		c-0.2,0.2-0.4,0.4-0.6,0.6c-0.2,0.2-0.3,0.4-0.3,0.7v2.2c0.1,0.3,0.3,0.5,0.4,0.7c0.2,0.2,0.4,0.4,0.6,0.6c0.2,0.2,0.5,0.3,0.7,0.4
		C204.5,39.8,204.8,39.9,205.1,39.9z"/>
	<path d="M215.3,34.1H212v6.3h-0.6v-6.8h4V34.1z"/>
</g>
<path d="M42.1,1.6c0-0.1,0-0.1,0-0.2c0-0.1,0-0.1,0-0.2c0,0,0-0.1,0-0.1C42,1,42,1,42,0.9c0,0,0-0.1-0.1-0.1c0,0-0.1-0.1-0.1-0.1
	c0,0-0.1-0.1-0.1-0.1c0,0-0.1-0.1-0.1-0.1c0,0,0,0,0,0c0,0-0.1,0-0.1-0.1c0,0-0.1-0.1-0.1-0.1c0,0-0.1-0.1-0.1-0.1
	c0,0-0.1,0-0.1-0.1c-0.1,0-0.1,0-0.2,0c0,0-0.1,0-0.1,0c-0.1,0-0.1,0-0.2,0c0,0-0.1,0-0.1,0c0,0,0,0-0.1,0c-0.1,0-0.1,0-0.2,0
	c0,0-0.1,0-0.1,0c-0.1,0-0.1,0-0.2,0c0,0-0.1,0-0.1,0.1c0,0-0.1,0-0.1,0.1c0,0-0.1,0.1-0.1,0.1c0,0-0.1,0.1-0.1,0.1
	c0,0-0.1,0.1-0.1,0.1c0,0,0,0,0,0L26.1,15.6c-2.5,2.9-2.5,7.3,0,10.2l11.4,13.1H3.2V3.2h19.1L11.5,15.6c-2.5,2.9-2.5,7.3,0,10.2
	l6.1,7c0.3,0.4,0.8,0.6,1.2,0.6c0.4,0,0.8-0.1,1.1-0.4c0.7-0.6,0.7-1.6,0.2-2.3l-6.1-7c-1.5-1.7-1.5-4.3,0-6L27.1,2.7c0,0,0,0,0,0
	c0.1-0.1,0.1-0.2,0.2-0.3c0,0,0,0,0-0.1c0.1-0.1,0.1-0.3,0.1-0.4c0,0,0-0.1,0-0.1c0-0.1,0-0.1,0-0.2c0-0.1,0-0.1,0-0.2
	c0,0,0-0.1,0-0.1c0-0.1-0.1-0.3-0.1-0.4c0,0,0,0,0,0c0,0,0,0,0,0c-0.1-0.1-0.1-0.2-0.2-0.3c0,0,0-0.1-0.1-0.1
	c-0.1-0.1-0.2-0.2-0.3-0.3c0,0,0,0,0,0c-0.1-0.1-0.2-0.1-0.3-0.1c0,0-0.1,0-0.1,0C26.1,0,26,0,25.8,0H1.6C0.7,0,0,0.7,0,1.6v38.9
	c0,0.9,0.7,1.6,1.6,1.6h38.9c0.9,0,1.6-0.7,1.6-1.6L42.1,1.6C42.1,1.6,42.1,1.6,42.1,1.6z M28.6,17.8L38.9,5.9v29.7L28.6,23.7
	C27.1,22,27.1,19.5,28.6,17.8z"/>
</svg>
