<svg width="306" height="44" viewBox="0 0 306 44" fill="none" xmlns="http://www.w3.org/2000/svg">
<rect width="305.9" height="43.2" fill="white"/>
<path d="M10.6073 2.49722H0V3.82313H5.4694L7.78975 6.80644V38.7941L6.29809 40.12H2.48609V41.6117H10.6073V10.9499L30.8275 34.4849V38.2969L28.6729 40.12H24.8609V41.9432H41.7663V40.12H37.2913L35.7997 38.7941V32.9932L10.6073 2.49722Z" fill="#333333"/>
<path d="M25.1924 3.65739V2H41.7663V3.65739H38.12L36.1312 5.812V21.06L51.2134 6.14348V3.65739H48.0644V2H63.4781V3.65739H58.1745L41.2691 19.8998L58.6717 40.12H62.8152V41.4459H52.5393L30.9932 15.2591V5.812L28.8386 3.65739H25.1924Z" fill="#333333"/>
<path d="M276.768 3.44447C278.779 3.44447 280.317 3.81066 281.382 4.54303C282.461 5.2754 283 6.42056 283 7.97851C283 8.79077 282.854 9.48985 282.561 10.0757C282.281 10.6483 281.868 11.121 281.322 11.4939C280.776 11.8534 280.111 12.1197 279.325 12.2928C278.539 12.4659 277.64 12.5525 276.628 12.5525H275.37V17.4261H272.853V3.78403C273.439 3.65087 274.085 3.56432 274.791 3.52437C275.51 3.47111 276.169 3.44447 276.768 3.44447ZM276.948 5.62161C276.309 5.62161 275.783 5.64158 275.37 5.68153V10.3953H276.588C277.8 10.3953 278.732 10.2289 279.385 9.89599C280.037 9.54977 280.364 8.90396 280.364 7.95854C280.364 7.5058 280.277 7.1263 280.104 6.82003C279.931 6.51377 279.691 6.27408 279.385 6.10098C279.079 5.92787 278.712 5.80803 278.286 5.74145C277.873 5.66156 277.427 5.62161 276.948 5.62161Z" fill="#333333"/>
<path d="M257.269 17.4261V3.5843H259.766V12.7722C260.219 12.0532 260.731 11.2808 261.304 10.4553C261.89 9.61637 262.489 8.78413 263.102 7.95855C263.727 7.13297 264.347 6.34068 264.959 5.58168C265.572 4.80936 266.144 4.14357 266.677 3.5843H268.734V17.4261H266.257V7.51913C265.698 8.18492 265.106 8.93726 264.48 9.77616C263.867 10.6017 263.261 11.4606 262.662 12.3528C262.063 13.2316 261.484 14.1105 260.924 14.9893C260.365 15.8548 259.859 16.6671 259.406 17.4261H257.269Z" fill="#333333"/>
<path d="M241.834 3.5843C242.127 4.09031 242.453 4.70949 242.812 5.44186C243.172 6.17423 243.538 6.94655 243.911 7.75881C244.284 8.55776 244.65 9.37668 245.01 10.2156C245.382 11.0412 245.722 11.8068 246.028 12.5126C246.334 11.8068 246.667 11.0412 247.027 10.2156C247.386 9.37668 247.753 8.55776 248.125 7.75881C248.498 6.94655 248.864 6.17423 249.224 5.44186C249.584 4.70949 249.91 4.09031 250.203 3.5843H252.48C252.6 4.59631 252.713 5.67489 252.819 6.82005C252.926 7.95189 253.019 9.11703 253.099 10.3154C253.192 11.5006 253.272 12.699 253.339 13.9107C253.418 15.1091 253.485 16.2809 253.538 17.4261H251.062C251.008 15.8149 250.942 14.1571 250.862 12.4526C250.795 10.7482 250.689 9.09705 250.542 7.49915C250.396 7.80542 250.223 8.1716 250.023 8.59771C249.823 9.02381 249.61 9.48987 249.384 9.99587C249.157 10.4886 248.924 11.0012 248.685 11.5338C248.458 12.0665 248.232 12.5858 248.006 13.0918C247.793 13.5845 247.593 14.0505 247.406 14.49C247.22 14.9161 247.06 15.2822 246.927 15.5885H245.049C244.916 15.2822 244.757 14.9094 244.57 14.47C244.384 14.0306 244.177 13.5645 243.951 13.0718C243.738 12.5658 243.512 12.0465 243.272 11.5139C243.045 10.9812 242.819 10.4686 242.593 9.9759C242.366 9.48321 242.153 9.02381 241.954 8.59771C241.754 8.15829 241.581 7.7921 241.434 7.49915C241.288 9.09705 241.175 10.7482 241.095 12.4526C241.028 14.1571 240.968 15.8149 240.915 17.4261H238.438C238.491 16.2809 238.551 15.0958 238.618 13.8708C238.698 12.6457 238.778 11.434 238.858 10.2356C238.951 9.02381 239.051 7.85202 239.157 6.72018C239.264 5.58833 239.377 4.54304 239.497 3.5843H241.834Z" fill="#333333"/>
<path d="M226.315 17.4261V3.5843H235.204V5.72149H228.832V9.137H234.505V11.2342H228.832V15.2889H235.683V17.4261H226.315Z" fill="#333333"/>
<path d="M223.597 3.5843V5.76144H219.343V17.4261H216.806V5.76144H212.552V3.5843H223.597Z" fill="#333333"/>
<path d="M207.323 3.5843H209.84V17.4261H207.323V11.2942H201.311V17.4261H198.795V3.5843H201.311V9.11703H207.323V3.5843Z" fill="#333333"/>
<path d="M193.53 17.4261C193.343 16.8801 193.15 16.3409 192.95 15.8082C192.751 15.2756 192.558 14.7296 192.371 14.1704H186.539C186.352 14.7296 186.159 15.2822 185.96 15.8282C185.773 16.3608 185.587 16.8935 185.4 17.4261H182.784C183.303 15.948 183.796 14.5832 184.262 13.3315C184.728 12.0798 185.181 10.8947 185.62 9.77616C186.073 8.65763 186.519 7.59236 186.958 6.58036C187.398 5.56836 187.85 4.56968 188.317 3.5843H190.693C191.159 4.56968 191.612 5.56836 192.052 6.58036C192.491 7.59236 192.93 8.65763 193.37 9.77616C193.823 10.8947 194.282 12.0798 194.748 13.3315C195.227 14.5832 195.727 15.948 196.246 17.4261H193.53ZM189.455 6.26078C189.149 6.96652 188.796 7.82539 188.396 8.83739C188.01 9.8494 187.604 10.948 187.178 12.1331H191.732C191.306 10.948 190.893 9.84274 190.494 8.81742C190.094 7.7921 189.748 6.93989 189.455 6.26078Z" fill="#333333"/>
<path d="M178.197 17.4261C177.851 16.8935 177.451 16.3342 176.999 15.7483C176.546 15.1624 176.066 14.5965 175.56 14.0505C175.068 13.5046 174.555 12.9853 174.022 12.4926C173.49 11.9999 172.964 11.5738 172.445 11.2143V17.4261H169.928V3.5843H172.445V9.29679C172.884 8.85737 173.343 8.39131 173.823 7.89863C174.302 7.39263 174.775 6.88663 175.241 6.38063C175.72 5.86131 176.173 5.36197 176.599 4.8826C177.025 4.40323 177.411 3.97046 177.758 3.5843H180.774C180.334 4.09031 179.868 4.61628 179.375 5.16223C178.883 5.70818 178.377 6.26078 177.857 6.82005C177.338 7.366 176.812 7.91194 176.28 8.45789C175.76 9.00384 175.248 9.52316 174.742 10.0158C175.301 10.4419 175.867 10.9413 176.439 11.5139C177.025 12.0731 177.598 12.679 178.157 13.3315C178.716 13.9706 179.249 14.6431 179.755 15.3488C180.274 16.0412 180.747 16.7337 181.173 17.4261H178.197Z" fill="#333333"/>
<path d="M154.715 17.5859C153.983 17.5859 153.244 17.5592 152.498 17.506C151.753 17.466 151.1 17.3728 150.541 17.2263V3.78403C150.834 3.73076 151.147 3.68416 151.48 3.64421C151.813 3.59095 152.152 3.551 152.498 3.52437C152.845 3.49774 153.184 3.47776 153.517 3.46445C153.863 3.45113 154.189 3.44447 154.496 3.44447C155.335 3.44447 156.114 3.51105 156.833 3.64421C157.552 3.76405 158.171 3.97045 158.69 4.2634C159.223 4.55634 159.636 4.9425 159.929 5.42187C160.221 5.90124 160.368 6.4938 160.368 7.19953C160.368 7.85201 160.208 8.41127 159.889 8.87733C159.582 9.34338 159.15 9.71622 158.59 9.99586C159.429 10.2755 160.048 10.6883 160.448 11.2342C160.847 11.7802 161.047 12.4726 161.047 13.3115C161.047 14.7363 160.528 15.8082 159.489 16.5273C158.45 17.233 156.859 17.5859 154.715 17.5859ZM153.018 11.1943V15.4087C153.297 15.4354 153.597 15.4553 153.916 15.4687C154.236 15.482 154.529 15.4886 154.795 15.4886C155.315 15.4886 155.794 15.4553 156.233 15.3888C156.686 15.3222 157.072 15.209 157.392 15.0492C157.725 14.8761 157.984 14.6497 158.171 14.3701C158.371 14.0905 158.47 13.7309 158.47 13.2915C158.47 12.5059 158.184 11.9599 157.612 11.6537C157.039 11.3474 156.247 11.1943 155.235 11.1943H153.018ZM153.018 9.21688H154.795C155.754 9.21688 156.506 9.08372 157.052 8.81741C157.598 8.53777 157.871 8.04509 157.871 7.33935C157.871 6.67356 157.585 6.20085 157.012 5.92122C156.453 5.64158 155.721 5.50177 154.815 5.50177C154.429 5.50177 154.083 5.50843 153.777 5.52174C153.484 5.53506 153.231 5.55503 153.018 5.58166V9.21688Z" fill="#333333"/>
<path d="M136.175 10.4952C136.175 11.2542 136.268 11.9466 136.455 12.5725C136.641 13.185 136.908 13.711 137.254 14.1504C137.613 14.5765 138.046 14.9094 138.552 15.1491C139.058 15.3888 139.631 15.5086 140.27 15.5086C140.896 15.5086 141.462 15.3888 141.968 15.1491C142.474 14.9094 142.9 14.5765 143.246 14.1504C143.606 13.711 143.878 13.185 144.065 12.5725C144.251 11.9466 144.345 11.2542 144.345 10.4952C144.345 9.73621 144.251 9.05045 144.065 8.43792C143.878 7.81208 143.606 7.2861 143.246 6.85999C142.9 6.42057 142.474 6.08102 141.968 5.84133C141.462 5.60165 140.896 5.48181 140.27 5.48181C139.631 5.48181 139.058 5.60165 138.552 5.84133C138.046 6.08102 137.613 6.42057 137.254 6.85999C136.908 7.29942 136.641 7.82539 136.455 8.43792C136.268 9.05045 136.175 9.73621 136.175 10.4952ZM146.981 10.4952C146.981 11.6803 146.801 12.7256 146.442 13.6311C146.096 14.5366 145.616 15.2956 145.004 15.9081C144.404 16.5073 143.699 16.96 142.886 17.2663C142.074 17.5726 141.209 17.7257 140.29 17.7257C139.371 17.7257 138.499 17.5726 137.673 17.2663C136.861 16.96 136.149 16.5073 135.536 15.9081C134.937 15.2956 134.458 14.5366 134.098 13.6311C133.738 12.7256 133.559 11.6803 133.559 10.4952C133.559 9.3101 133.738 8.27147 134.098 7.37931C134.458 6.47384 134.944 5.71483 135.556 5.10231C136.182 4.48978 136.901 4.03038 137.713 3.72412C138.526 3.41786 139.384 3.26472 140.29 3.26472C141.195 3.26472 142.054 3.41786 142.866 3.72412C143.679 4.03038 144.384 4.48978 144.984 5.10231C145.596 5.71483 146.082 6.47384 146.442 7.37931C146.801 8.27147 146.981 9.3101 146.981 10.4952Z" fill="#333333"/>
<path d="M118.682 3.5843C118.975 4.09031 119.302 4.70949 119.661 5.44186C120.021 6.17423 120.387 6.94655 120.76 7.75881C121.133 8.55776 121.499 9.37668 121.858 10.2156C122.231 11.0412 122.571 11.8068 122.877 12.5126C123.183 11.8068 123.516 11.0412 123.876 10.2156C124.235 9.37668 124.601 8.55776 124.974 7.75881C125.347 6.94655 125.713 6.17423 126.073 5.44186C126.432 4.70949 126.759 4.09031 127.051 3.5843H129.328C129.448 4.59631 129.561 5.67489 129.668 6.82005C129.775 7.95189 129.868 9.11703 129.948 10.3154C130.041 11.5006 130.121 12.699 130.187 13.9107C130.267 15.1091 130.334 16.2809 130.387 17.4261H127.91C127.857 15.8149 127.79 14.1571 127.711 12.4526C127.644 10.7482 127.537 9.09705 127.391 7.49915C127.245 7.80542 127.071 8.1716 126.872 8.59771C126.672 9.02381 126.459 9.48987 126.233 9.99587C126.006 10.4886 125.773 11.0012 125.533 11.5338C125.307 12.0665 125.081 12.5858 124.854 13.0918C124.641 13.5845 124.442 14.0505 124.255 14.49C124.069 14.9161 123.909 15.2822 123.776 15.5885H121.898C121.765 15.2822 121.605 14.9094 121.419 14.47C121.232 14.0306 121.026 13.5645 120.8 13.0718C120.587 12.5658 120.36 12.0465 120.121 11.5139C119.894 10.9812 119.668 10.4686 119.441 9.9759C119.215 9.48321 119.002 9.02381 118.802 8.59771C118.603 8.15829 118.429 7.7921 118.283 7.49915C118.137 9.09705 118.023 10.7482 117.943 12.4526C117.877 14.1571 117.817 15.8149 117.764 17.4261H115.287C115.34 16.2809 115.4 15.0958 115.467 13.8708C115.547 12.6457 115.626 11.434 115.706 10.2356C115.8 9.02381 115.899 7.85202 116.006 6.72018C116.113 5.58833 116.226 4.54304 116.346 3.5843H118.682Z" fill="#333333"/>
<path d="M106.676 17.4261H104.159V3.5843H112.947V5.74147H106.676V17.4261Z" fill="#333333"/>
<path d="M89.7933 10.4952C89.7933 11.2542 89.8865 11.9466 90.0729 12.5725C90.2593 13.185 90.5256 13.711 90.8718 14.1504C91.2314 14.5765 91.6641 14.9094 92.1701 15.1491C92.6761 15.3888 93.2487 15.5086 93.8879 15.5086C94.5137 15.5086 95.0796 15.3888 95.5856 15.1491C96.0916 14.9094 96.5177 14.5765 96.864 14.1504C97.2235 13.711 97.4965 13.185 97.6829 12.5725C97.8693 11.9466 97.9625 11.2542 97.9625 10.4952C97.9625 9.73621 97.8693 9.05045 97.6829 8.43792C97.4965 7.81208 97.2235 7.2861 96.864 6.85999C96.5177 6.42057 96.0916 6.08102 95.5856 5.84133C95.0796 5.60165 94.5137 5.48181 93.8879 5.48181C93.2487 5.48181 92.6761 5.60165 92.1701 5.84133C91.6641 6.08102 91.2314 6.42057 90.8718 6.85999C90.5256 7.29942 90.2593 7.82539 90.0729 8.43792C89.8865 9.05045 89.7933 9.73621 89.7933 10.4952ZM100.599 10.4952C100.599 11.6803 100.419 12.7256 100.06 13.6311C99.7135 14.5366 99.2342 15.2956 98.6216 15.9081C98.0224 16.5073 97.3167 16.96 96.5044 17.2663C95.6922 17.5726 94.8266 17.7257 93.9078 17.7257C92.9891 17.7257 92.1169 17.5726 91.2913 17.2663C90.479 16.96 89.7666 16.5073 89.1541 15.9081C88.5549 15.2956 88.0755 14.5366 87.716 13.6311C87.3565 12.7256 87.1767 11.6803 87.1767 10.4952C87.1767 9.3101 87.3565 8.27147 87.716 7.37931C88.0755 6.47384 88.5615 5.71483 89.1741 5.10231C89.7999 4.48978 90.519 4.03038 91.3312 3.72412C92.1435 3.41786 93.0024 3.26472 93.9078 3.26472C94.8133 3.26472 95.6722 3.41786 96.4845 3.72412C97.2967 4.03038 98.0025 4.48978 98.6017 5.10231C99.2142 5.71483 99.7002 6.47384 100.06 7.37931C100.419 8.27147 100.599 9.3101 100.599 10.4952Z" fill="#333333"/>
<path d="M81.1097 3.5843H83.6264V17.4261H81.1097V11.2942H75.0976V17.4261H72.5809V3.5843H75.0976V9.11703H81.1097V3.5843Z" fill="#333333"/>
<path d="M195.446 34.2587H192.918V39.3151H192.206V33.6568H195.446V34.2587Z" fill="#333333"/>
<path d="M185.662 38.2972C185.727 38.3483 185.808 38.403 185.902 38.4614C186.005 38.5198 186.121 38.5745 186.253 38.6256C186.384 38.6767 186.526 38.7204 186.679 38.7569C186.833 38.7861 186.993 38.8007 187.161 38.8007C187.511 38.8007 187.803 38.7423 188.037 38.6256C188.277 38.5015 188.471 38.3374 188.617 38.1331C188.763 37.9215 188.868 37.6771 188.934 37.3998C189 37.1152 189.032 36.8161 189.032 36.5023C189.032 35.7581 188.846 35.189 188.474 34.795C188.102 34.3937 187.61 34.1931 186.997 34.1931C186.647 34.1931 186.362 34.2113 186.143 34.2478C185.932 34.277 185.771 34.3098 185.662 34.3463V38.2972ZM185.662 41.3398H184.95V33.8538C185.162 33.7808 185.432 33.7115 185.76 33.6458C186.088 33.5802 186.504 33.5473 187.008 33.5473C187.424 33.5473 187.799 33.6166 188.135 33.7553C188.478 33.8866 188.77 34.08 189.011 34.3353C189.259 34.5907 189.448 34.9008 189.58 35.2656C189.718 35.6304 189.788 36.0427 189.788 36.5023C189.788 36.9328 189.729 37.3305 189.613 37.6953C189.503 38.0528 189.339 38.3629 189.12 38.6256C188.901 38.881 188.631 39.0816 188.31 39.2275C187.996 39.3735 187.635 39.4464 187.227 39.4464C186.855 39.4464 186.53 39.3953 186.253 39.2932C185.983 39.1838 185.786 39.0816 185.662 38.9868V41.3398Z" fill="#333333"/>
<path d="M180.434 39.4355C180.193 38.9904 179.96 38.5271 179.734 38.0455C179.515 37.564 179.307 37.0788 179.11 36.5899C178.92 36.0938 178.745 35.6013 178.584 35.1124C178.424 34.6163 178.285 34.1311 178.169 33.6568H178.924C179.004 34.007 179.106 34.3864 179.23 34.795C179.354 35.1963 179.493 35.6122 179.646 36.0427C179.807 36.4732 179.982 36.9146 180.171 37.367C180.361 37.8194 180.565 38.2644 180.784 38.7022C180.945 38.2498 181.087 37.823 181.211 37.4217C181.335 37.0204 181.448 36.6228 181.55 36.2288C181.66 35.8275 181.762 35.4189 181.857 35.003C181.959 34.5871 182.065 34.1384 182.174 33.6568H182.886C182.652 34.7148 182.386 35.7436 182.087 36.7431C181.788 37.7427 181.463 38.6584 181.113 39.4902C180.974 39.8186 180.832 40.0995 180.686 40.3329C180.54 40.5737 180.376 40.7707 180.193 40.924C180.018 41.0772 179.81 41.1903 179.569 41.2632C179.336 41.3362 179.059 41.3727 178.738 41.3727C178.555 41.3727 178.387 41.3508 178.234 41.307C178.088 41.2632 177.997 41.2304 177.961 41.2085L178.103 40.6175C178.132 40.6394 178.212 40.6686 178.344 40.7051C178.482 40.7488 178.625 40.7707 178.771 40.7707C178.975 40.7707 179.157 40.7488 179.318 40.7051C179.486 40.6613 179.635 40.5847 179.766 40.4752C179.898 40.3731 180.015 40.2381 180.117 40.0703C180.226 39.9025 180.332 39.6909 180.434 39.4355Z" fill="#333333"/>
<path d="M172.346 38.2972C172.412 38.3483 172.492 38.403 172.587 38.4614C172.689 38.5198 172.806 38.5745 172.937 38.6256C173.068 38.6767 173.211 38.7204 173.364 38.7569C173.517 38.7861 173.678 38.8007 173.845 38.8007C174.196 38.8007 174.488 38.7423 174.721 38.6256C174.962 38.5015 175.155 38.3374 175.301 38.1331C175.447 37.9215 175.553 37.6771 175.618 37.3998C175.684 37.1152 175.717 36.8161 175.717 36.5023C175.717 35.7581 175.531 35.189 175.159 34.795C174.787 34.3937 174.294 34.1931 173.681 34.1931C173.331 34.1931 173.046 34.2113 172.828 34.2478C172.616 34.277 172.455 34.3098 172.346 34.3463V38.2972ZM172.346 41.3398H171.635V33.8538C171.846 33.7808 172.116 33.7115 172.445 33.6458C172.773 33.5802 173.189 33.5473 173.692 33.5473C174.108 33.5473 174.484 33.6166 174.819 33.7553C175.162 33.8866 175.454 34.08 175.695 34.3353C175.943 34.5907 176.133 34.9008 176.264 35.2656C176.403 35.6304 176.472 36.0427 176.472 36.5023C176.472 36.9328 176.414 37.3305 176.297 37.6953C176.188 38.0528 176.023 38.3629 175.804 38.6256C175.586 38.881 175.316 39.0816 174.995 39.2275C174.681 39.3735 174.32 39.4464 173.911 39.4464C173.539 39.4464 173.214 39.3953 172.937 39.2932C172.667 39.1838 172.47 39.0816 172.346 38.9868V41.3398Z" fill="#333333"/>
<path d="M168.177 34.5652C167.958 34.8279 167.703 35.1598 167.411 35.5611C167.127 35.9624 166.835 36.3856 166.536 36.8307C166.244 37.2758 165.963 37.7172 165.693 38.155C165.423 38.5928 165.19 38.9795 164.993 39.3151H164.325V33.6568H165.025V38.1878C165.2 37.8741 165.416 37.5129 165.671 37.1043C165.934 36.6884 166.211 36.2725 166.503 35.8566C166.795 35.4335 167.087 35.0285 167.378 34.6418C167.678 34.2551 167.955 33.9268 168.21 33.6568H168.878V39.3151H168.177V34.5652Z" fill="#333333"/>
<path d="M159.761 36.7541C159.6 36.9657 159.44 37.1882 159.279 37.4217C159.119 37.6552 158.962 37.885 158.809 38.1112C158.663 38.3374 158.528 38.5563 158.404 38.7679C158.28 38.9722 158.174 39.1546 158.086 39.3151H157.353C157.652 38.7533 157.966 38.2316 158.294 37.75C158.623 37.2612 158.958 36.7833 159.301 36.3163L157.462 33.6568H158.294L159.761 35.8238L161.249 33.6568H162.026L160.22 36.2725C160.374 36.4768 160.538 36.6994 160.713 36.9402C160.888 37.1809 161.063 37.4327 161.238 37.6953C161.413 37.9507 161.581 38.217 161.742 38.4943C161.91 38.7715 162.063 39.0451 162.201 39.3151H161.435C161.348 39.1546 161.242 38.9722 161.118 38.7679C160.994 38.5563 160.855 38.3374 160.702 38.1112C160.556 37.885 160.399 37.6552 160.231 37.4217C160.071 37.1882 159.914 36.9657 159.761 36.7541Z" fill="#333333"/>
<path d="M151.165 34.5652C150.946 34.8279 150.69 35.1598 150.399 35.5611C150.114 35.9624 149.822 36.3856 149.523 36.8307C149.231 37.2758 148.95 37.7172 148.68 38.155C148.41 38.5928 148.177 38.9795 147.98 39.3151H147.312V33.6568H148.013V38.1878C148.188 37.8741 148.403 37.5129 148.658 37.1043C148.921 36.6884 149.198 36.2725 149.49 35.8566C149.782 35.4335 150.074 35.0285 150.366 34.6418C150.665 34.2551 150.942 33.9268 151.197 33.6568H151.865V39.3151H151.165V34.5652ZM149.589 32.6937C149.18 32.6937 148.844 32.5806 148.582 32.3544C148.319 32.1282 148.151 31.8072 148.078 31.3913L148.658 31.2381C148.702 31.4861 148.797 31.6904 148.943 31.851C149.096 32.0042 149.311 32.0808 149.589 32.0808C149.866 32.0808 150.078 32.0042 150.223 31.851C150.377 31.6904 150.475 31.4861 150.519 31.2381L151.099 31.3913C151.026 31.8072 150.858 32.1282 150.596 32.3544C150.333 32.5806 149.997 32.6937 149.589 32.6937Z" fill="#333333"/>
<path d="M143.855 34.5652C143.636 34.8279 143.381 35.1598 143.089 35.5611C142.804 35.9624 142.512 36.3856 142.213 36.8307C141.921 37.2758 141.64 37.7172 141.371 38.155C141.101 38.5928 140.867 38.9795 140.67 39.3151H140.002V33.6568H140.703V38.1878C140.878 37.8741 141.093 37.5129 141.349 37.1043C141.611 36.6884 141.889 36.2725 142.18 35.8566C142.472 35.4335 142.764 35.0285 143.056 34.6418C143.355 34.2551 143.632 33.9268 143.888 33.6568H144.555V39.3151H143.855V34.5652Z" fill="#333333"/>
<path d="M133.591 39.3151V33.6568H134.302V36.2725C134.506 36.0755 134.732 35.8566 134.98 35.6159C135.236 35.3678 135.484 35.1234 135.725 34.8826C135.965 34.6345 136.188 34.4047 136.392 34.1931C136.604 33.9742 136.772 33.7954 136.896 33.6568H137.749C137.582 33.8465 137.381 34.0617 137.147 34.3025C136.914 34.536 136.673 34.7731 136.425 35.0139C136.184 35.2547 135.947 35.4882 135.714 35.7144C135.488 35.9406 135.287 36.1339 135.112 36.2944C135.36 36.4549 135.623 36.6556 135.9 36.8964C136.177 37.1299 136.443 37.3852 136.699 37.6625C136.961 37.9325 137.202 38.2134 137.421 38.5052C137.647 38.7898 137.837 39.0597 137.99 39.3151H137.147C136.972 39.0451 136.764 38.7715 136.524 38.4943C136.29 38.217 136.042 37.9543 135.779 37.7063C135.524 37.4509 135.265 37.2211 135.002 37.0168C134.747 36.8125 134.513 36.6483 134.302 36.5243V39.3151H133.591Z" fill="#333333"/>
<path d="M130.023 39.4355C129.585 39.4355 129.199 39.3662 128.863 39.2276C128.527 39.0889 128.246 38.8919 128.02 38.6366C127.801 38.3739 127.633 38.0638 127.517 37.7063C127.4 37.3415 127.342 36.9402 127.342 36.5024C127.342 36.0573 127.4 35.6524 127.517 35.2875C127.641 34.9227 127.816 34.609 128.042 34.3463C128.268 34.0837 128.542 33.883 128.863 33.7444C129.184 33.5984 129.545 33.5255 129.946 33.5255C130.253 33.5255 130.537 33.551 130.8 33.6021C131.07 33.6532 131.278 33.7188 131.424 33.7991L131.238 34.412C131.092 34.339 130.928 34.2807 130.745 34.2369C130.563 34.1931 130.319 34.1712 130.012 34.1712C129.385 34.1712 128.907 34.3755 128.578 34.7841C128.257 35.1854 128.097 35.7582 128.097 36.5024C128.097 36.838 128.133 37.1481 128.206 37.4327C128.279 37.7099 128.396 37.9507 128.556 38.155C128.724 38.352 128.936 38.5089 129.191 38.6256C129.454 38.7351 129.771 38.7898 130.143 38.7898C130.45 38.7898 130.705 38.757 130.91 38.6913C131.121 38.6183 131.274 38.5563 131.369 38.5052L131.522 39.1181C131.391 39.1911 131.183 39.2604 130.899 39.3261C130.621 39.399 130.329 39.4355 130.023 39.4355Z" fill="#333333"/>
<path d="M120.47 36.4805C120.47 35.9843 120.539 35.5539 120.678 35.189C120.824 34.8169 121.01 34.5068 121.236 34.2588C121.47 34.0107 121.732 33.8283 122.024 33.7115C122.323 33.5875 122.63 33.5255 122.944 33.5255C123.637 33.5255 124.188 33.7517 124.596 34.204C125.012 34.6564 125.22 35.3532 125.22 36.2944C125.22 36.3528 125.216 36.4112 125.209 36.4696C125.209 36.5279 125.205 36.5826 125.198 36.6337H121.225C121.247 37.3269 121.419 37.8595 121.74 38.2316C122.061 38.6037 122.571 38.7898 123.272 38.7898C123.659 38.7898 123.965 38.7533 124.191 38.6803C124.417 38.6074 124.582 38.5454 124.684 38.4943L124.815 39.1072C124.713 39.1656 124.52 39.2349 124.235 39.3151C123.958 39.3954 123.629 39.4355 123.25 39.4355C122.754 39.4355 122.331 39.3626 121.98 39.2166C121.63 39.0707 121.342 38.8664 121.116 38.6037C120.89 38.3411 120.725 38.031 120.623 37.6735C120.521 37.3086 120.47 36.911 120.47 36.4805ZM124.487 36.0318C124.472 35.4408 124.334 34.9811 124.071 34.6528C123.808 34.3244 123.436 34.1603 122.954 34.1603C122.699 34.1603 122.469 34.2113 122.265 34.3135C122.068 34.4156 121.893 34.5543 121.74 34.7294C121.594 34.8972 121.477 35.0942 121.389 35.3204C121.309 35.5466 121.262 35.7837 121.247 36.0318H124.487Z" fill="#333333"/>
<path d="M113.853 33.6568H114.565V35.189C114.565 35.7144 114.681 36.0755 114.915 36.2725C115.156 36.4695 115.499 36.568 115.944 36.568C116.316 36.568 116.604 36.5498 116.808 36.5133C117.02 36.4768 117.199 36.4331 117.345 36.382V33.6568H118.056V39.3151H117.345V36.9839C117.293 36.9985 117.217 37.0204 117.115 37.0496C117.02 37.0715 116.907 37.0934 116.775 37.1153C116.644 37.1372 116.502 37.159 116.349 37.1809C116.203 37.1955 116.053 37.2028 115.9 37.2028C115.586 37.2028 115.302 37.17 115.046 37.1043C114.798 37.0387 114.583 36.9292 114.4 36.776C114.225 36.6228 114.09 36.4221 113.996 36.174C113.901 35.9187 113.853 35.6049 113.853 35.2328V33.6568Z" fill="#333333"/>
<path d="M110.812 34.5652C110.593 34.8279 110.338 35.1598 110.046 35.5611C109.761 35.9624 109.469 36.3856 109.17 36.8307C108.878 37.2758 108.598 37.7172 108.328 38.155C108.058 38.5928 107.824 38.9795 107.627 39.3151H106.959V33.6568H107.66V38.1878C107.835 37.8741 108.05 37.5129 108.306 37.1043C108.568 36.6884 108.846 36.2725 109.137 35.8566C109.429 35.4335 109.721 35.0285 110.013 34.6418C110.312 34.2551 110.589 33.9268 110.845 33.6568H111.512V39.3151H110.812V34.5652Z" fill="#333333"/>
<path d="M104.983 33.6568V34.2587H103.122V39.3151H102.411V34.2587H100.561V33.6568H104.983Z" fill="#333333"/>
<path d="M97.6106 39.4355C97.1728 39.4355 96.7861 39.3662 96.4505 39.2276C96.1149 39.0889 95.8339 38.8919 95.6078 38.6366C95.3889 38.3739 95.2211 38.0638 95.1043 37.7063C94.9876 37.3415 94.9292 36.9402 94.9292 36.5024C94.9292 36.0573 94.9876 35.6524 95.1043 35.2875C95.2283 34.9227 95.4035 34.609 95.6296 34.3463C95.8558 34.0837 96.1294 33.883 96.4505 33.7444C96.7715 33.5984 97.1327 33.5255 97.534 33.5255C97.8404 33.5255 98.125 33.551 98.3877 33.6021C98.6576 33.6532 98.8656 33.7188 99.0115 33.7991L98.8254 34.412C98.6795 34.339 98.5153 34.2807 98.3329 34.2369C98.1505 34.1931 97.9061 34.1712 97.5997 34.1712C96.9722 34.1712 96.4943 34.3755 96.1659 34.7841C95.8449 35.1854 95.6844 35.7582 95.6844 36.5024C95.6844 36.838 95.7209 37.1481 95.7938 37.4327C95.8668 37.7099 95.9835 37.9507 96.144 38.155C96.3119 38.352 96.5234 38.5089 96.7788 38.6256C97.0415 38.7351 97.3589 38.7898 97.731 38.7898C98.0374 38.7898 98.2928 38.757 98.4971 38.6913C98.7087 38.6183 98.8619 38.5563 98.9568 38.5052L99.11 39.1181C98.9787 39.1911 98.7707 39.2604 98.4862 39.3261C98.2089 39.399 97.9171 39.4355 97.6106 39.4355Z" fill="#333333"/>
<path d="M90.6084 38.8007C90.8857 38.8007 91.1265 38.7934 91.3308 38.7788C91.5423 38.757 91.7211 38.7314 91.867 38.7022V36.7103C91.7868 36.6739 91.6591 36.6374 91.484 36.6009C91.3089 36.5571 91.0681 36.5352 90.7616 36.5352C90.5865 36.5352 90.4041 36.5498 90.2144 36.579C90.0247 36.6009 89.8496 36.6556 89.6891 36.7432C89.5286 36.8234 89.3972 36.9365 89.2951 37.0824C89.1929 37.2284 89.1419 37.4217 89.1419 37.6625C89.1419 37.8741 89.1747 38.0529 89.2404 38.1988C89.3133 38.3447 89.4118 38.4615 89.5359 38.549C89.6672 38.6366 89.8204 38.7022 89.9955 38.746C90.1779 38.7825 90.3822 38.8007 90.6084 38.8007ZM90.5427 33.5255C90.9149 33.5255 91.2286 33.5802 91.484 33.6897C91.7466 33.7918 91.9582 33.9377 92.1188 34.1274C92.2793 34.3098 92.396 34.5287 92.469 34.7841C92.5419 35.0395 92.5784 35.3167 92.5784 35.6159V39.1838C92.5055 39.2057 92.3997 39.2312 92.261 39.2604C92.1224 39.2823 91.9619 39.3078 91.7795 39.337C91.5971 39.3662 91.3928 39.3881 91.1666 39.4027C90.9477 39.4246 90.7215 39.4355 90.488 39.4355C90.1889 39.4355 89.9116 39.4027 89.6562 39.337C89.4082 39.2713 89.1893 39.1692 88.9996 39.0306C88.8172 38.8846 88.6712 38.7022 88.5618 38.4833C88.4596 38.2572 88.4086 37.9835 88.4086 37.6625C88.4086 37.3561 88.4669 37.0934 88.5837 36.8745C88.7004 36.6556 88.8646 36.4769 89.0762 36.3382C89.2878 36.1923 89.5395 36.0865 89.8314 36.0208C90.1232 35.9552 90.4406 35.9223 90.7835 35.9223C90.8857 35.9223 90.9915 35.9296 91.1009 35.9442C91.2177 35.9515 91.3271 35.9661 91.4293 35.988C91.5387 36.0026 91.6299 36.0208 91.7029 36.0427C91.7831 36.0573 91.8378 36.0719 91.867 36.0865V35.7363C91.867 35.5393 91.8524 35.3496 91.8233 35.1672C91.7941 34.9775 91.7284 34.8096 91.6263 34.6637C91.5314 34.5105 91.3928 34.3901 91.2104 34.3025C91.0353 34.2077 90.8018 34.1603 90.5099 34.1603C90.094 34.1603 89.7839 34.1894 89.5796 34.2478C89.3753 34.3062 89.2258 34.3536 89.1309 34.3901L89.0324 33.7663C89.1564 33.7079 89.3461 33.6532 89.6015 33.6021C89.8642 33.551 90.1779 33.5255 90.5427 33.5255Z" fill="#333333"/>
<path d="M83.2748 34.2587V34.4886C83.2748 34.7075 83.2712 34.9483 83.2639 35.2109C83.2566 35.4663 83.242 35.729 83.2201 35.9989C83.1982 36.2689 83.1617 36.5389 83.1107 36.8088C83.0669 37.0715 83.0085 37.3196 82.9356 37.553C82.8553 37.7938 82.7531 38.0237 82.6291 38.2425C82.5124 38.4541 82.3701 38.6438 82.2023 38.8117C82.0417 38.9722 81.852 39.1072 81.6332 39.2166C81.4216 39.3188 81.1808 39.3844 80.9108 39.4136L80.8123 38.8226C81.1771 38.7423 81.469 38.5928 81.6879 38.3739C81.9141 38.155 82.1001 37.8449 82.246 37.4436C82.392 37.0423 82.4832 36.5826 82.5197 36.0646C82.5634 35.5393 82.5853 34.9665 82.5853 34.3463V33.6568H86.0657V39.3151H85.3543V34.2587H83.2748Z" fill="#333333"/>
<path d="M78.8032 31.7306V39.3151H78.0589V32.3763H74.0204V39.3151H73.2762V31.7306H78.8032Z" fill="#333333"/>
</svg>
