<svg width="306" height="44" viewBox="0 0 306 44" fill="none" xmlns="http://www.w3.org/2000/svg">
<path d="M11.4191 0.53527H0V1.96266H5.88797L8.38589 5.17427V39.61L6.78008 41.0373H2.67635V42.6432H11.4191V9.63486L33.1867 34.971V39.0747L30.8672 41.0373H26.7635V43H44.9627V41.0373H40.1452L38.5394 39.61V33.3651L11.4191 0.53527Z" fill="#333333"/>
<path d="M27.1203 1.78423V0H44.9627V1.78423H41.0373L38.8963 4.10373V20.5187L55.1328 4.46058V1.78423H51.7427V0H68.3361V1.78423H62.6266L44.4274 19.2697L63.1618 41.0373H67.6224V42.4647H56.5602L33.3651 14.2739V4.10373L31.0456 1.78423H27.1203Z" fill="#333333"/>
<path d="M297.949 1.55502C300.114 1.55502 301.769 1.94923 302.916 2.73765C304.077 3.52607 304.658 4.75887 304.658 6.43605C304.658 7.31047 304.5 8.06305 304.185 8.69379C303.884 9.31019 303.439 9.81908 302.852 10.2205C302.264 10.6075 301.547 10.8942 300.701 11.0805C299.856 11.2669 298.888 11.3601 297.799 11.3601H296.444V16.6066H293.735V1.92056C294.365 1.77721 295.061 1.68404 295.82 1.64103C296.595 1.58369 297.304 1.55502 297.949 1.55502ZM298.143 3.89878C297.455 3.89878 296.888 3.92028 296.444 3.96328V9.03783H297.756C299.06 9.03783 300.064 8.85864 300.766 8.50027C301.468 8.12756 301.82 7.43232 301.82 6.41454C301.82 5.92716 301.726 5.51862 301.54 5.18891C301.354 4.85921 301.096 4.60118 300.766 4.41483C300.436 4.22848 300.042 4.09946 299.583 4.02779C299.139 3.94178 298.659 3.89878 298.143 3.89878Z" fill="#333333"/>
<path d="M276.958 16.6066V1.70555H279.646V11.5966C280.133 10.8225 280.685 9.99111 281.301 9.10234C281.932 8.19925 282.577 7.30332 283.237 6.41456C283.91 5.52579 284.577 4.67287 285.236 3.85578C285.896 3.02436 286.512 2.30762 287.086 1.70555H289.3V16.6066H286.634V5.94151C286.032 6.65825 285.394 7.46817 284.72 8.37127C284.061 9.26003 283.409 10.1846 282.764 11.1451C282.119 12.0912 281.495 13.0373 280.893 13.9834C280.291 14.9151 279.746 15.7896 279.259 16.6066H276.958Z" fill="#333333"/>
<path d="M260.341 1.70555C260.657 2.25028 261.008 2.91685 261.395 3.70527C261.782 4.49368 262.176 5.32511 262.577 6.19953C262.979 7.05963 263.373 7.94122 263.76 8.84432C264.161 9.73308 264.527 10.5573 264.857 11.3171C265.186 10.5573 265.545 9.73308 265.932 8.84432C266.319 7.94122 266.713 7.05963 267.114 6.19953C267.516 5.32511 267.91 4.49368 268.297 3.70527C268.684 2.91685 269.035 2.25028 269.351 1.70555H271.802C271.931 2.795 272.053 3.95613 272.167 5.18892C272.282 6.40739 272.382 7.66169 272.468 8.95183C272.569 10.2276 272.655 11.5178 272.727 12.8222C272.813 14.1124 272.884 15.3738 272.942 16.6066H270.275C270.218 14.8721 270.146 13.0874 270.06 11.2526C269.989 9.41771 269.874 7.64019 269.716 5.92C269.558 6.2497 269.372 6.64391 269.157 7.10263C268.942 7.56134 268.713 8.06307 268.469 8.60779C268.225 9.13818 267.974 9.69007 267.716 10.2635C267.473 10.8369 267.229 11.3959 266.985 11.9406C266.756 12.471 266.541 12.9728 266.34 13.4458C266.14 13.9045 265.968 14.2987 265.824 14.6284H263.803C263.66 14.2987 263.488 13.8974 263.287 13.4243C263.086 12.9513 262.864 12.4495 262.62 11.9191C262.391 11.3744 262.147 10.8154 261.889 10.242C261.646 9.66857 261.402 9.11668 261.158 8.58629C260.915 8.0559 260.685 7.56134 260.47 7.10263C260.255 6.62958 260.069 6.23537 259.911 5.92C259.753 7.64019 259.632 9.41771 259.546 11.2526C259.474 13.0874 259.409 14.8721 259.352 16.6066H256.686C256.743 15.3738 256.808 14.098 256.879 12.7792C256.965 11.4604 257.051 10.156 257.137 8.86582C257.238 7.56134 257.345 6.29988 257.46 5.08141C257.575 3.86295 257.696 2.73766 257.825 1.70555H260.341Z" fill="#333333"/>
<path d="M243.635 16.6066V1.70555H253.204V4.0063H246.345V7.68319H252.451V9.94093H246.345V14.3059H253.72V16.6066H243.635Z" fill="#333333"/>
<path d="M240.709 1.70555V4.0493H236.129V16.6066H233.398V4.0493H228.818V1.70555H240.709Z" fill="#333333"/>
<path d="M223.19 1.70555H225.899V16.6066H223.19V10.0054H216.718V16.6066H214.008V1.70555H216.718V7.66169H223.19V1.70555Z" fill="#333333"/>
<path d="M208.34 16.6066C208.14 16.0189 207.932 15.4384 207.717 14.865C207.502 14.2916 207.294 13.7038 207.093 13.1018H200.815C200.614 13.7038 200.406 14.2987 200.191 14.8865C199.99 15.4599 199.79 16.0333 199.589 16.6066H196.772C197.331 15.0155 197.862 13.5462 198.363 12.1987C198.865 10.8512 199.352 9.57539 199.826 8.37127C200.313 7.16714 200.793 6.02035 201.266 4.9309C201.739 3.84145 202.227 2.76633 202.728 1.70555H205.287C205.789 2.76633 206.276 3.84145 206.749 4.9309C207.222 6.02035 207.695 7.16714 208.168 8.37127C208.656 9.57539 209.15 10.8512 209.652 12.1987C210.168 13.5462 210.706 15.0155 211.265 16.6066H208.34ZM203.954 4.58686C203.624 5.34661 203.244 6.27121 202.814 7.36066C202.399 8.45011 201.961 9.63273 201.503 10.9085H206.405C205.947 9.63273 205.502 8.44294 205.072 7.33915C204.642 6.23537 204.269 5.31794 203.954 4.58686Z" fill="#333333"/>
<path d="M191.834 16.6066C191.462 16.0333 191.032 15.4312 190.544 14.8005C190.057 14.1697 189.541 13.5605 188.996 12.9728C188.466 12.385 187.914 11.826 187.34 11.2956C186.767 10.7652 186.201 10.3065 185.642 9.91943V16.6066H182.932V1.70555H185.642V7.85521C186.115 7.38216 186.609 6.88044 187.125 6.35005C187.641 5.80532 188.15 5.2606 188.652 4.71587C189.168 4.15681 189.655 3.61926 190.114 3.1032C190.573 2.58715 190.989 2.12126 191.361 1.70555H194.608C194.135 2.25028 193.633 2.8165 193.103 3.40423C192.573 3.99196 192.028 4.58686 191.469 5.18892C190.91 5.77665 190.344 6.36438 189.77 6.95211C189.211 7.53984 188.659 8.0989 188.114 8.62929C188.716 9.08801 189.326 9.62557 189.942 10.242C190.573 10.844 191.189 11.4963 191.791 12.1987C192.393 12.8867 192.967 13.6107 193.512 14.3704C194.071 15.1158 194.579 15.8612 195.038 16.6066H191.834Z" fill="#333333"/>
<path d="M166.556 16.7787C165.767 16.7787 164.972 16.75 164.169 16.6926C163.366 16.6496 162.664 16.5493 162.062 16.3916V1.92056C162.377 1.86322 162.714 1.81305 163.072 1.77005C163.431 1.71271 163.796 1.6697 164.169 1.64103C164.542 1.61236 164.907 1.59086 165.266 1.57653C165.638 1.56219 165.989 1.55502 166.319 1.55502C167.222 1.55502 168.061 1.6267 168.835 1.77005C169.609 1.89906 170.276 2.12125 170.835 2.43662C171.408 2.75199 171.852 3.1677 172.168 3.68375C172.483 4.19981 172.641 4.83771 172.641 5.59746C172.641 6.29987 172.469 6.90193 172.125 7.40365C171.795 7.90537 171.329 8.30675 170.727 8.60778C171.63 8.90881 172.297 9.35319 172.727 9.94092C173.157 10.5287 173.372 11.2741 173.372 12.1772C173.372 13.711 172.813 14.865 171.695 15.639C170.577 16.3988 168.864 16.7787 166.556 16.7787ZM164.728 9.89792V14.4349C165.029 14.4636 165.352 14.4851 165.696 14.4994C166.04 14.5137 166.355 14.5209 166.642 14.5209C167.201 14.5209 167.717 14.4851 168.19 14.4134C168.677 14.3417 169.093 14.2199 169.437 14.0479C169.795 13.8615 170.075 13.6178 170.276 13.3168C170.491 13.0158 170.598 12.6287 170.598 12.1557C170.598 11.3099 170.29 10.7222 169.674 10.3925C169.057 10.0628 168.204 9.89792 167.115 9.89792H164.728ZM164.728 7.76919H166.642C167.674 7.76919 168.484 7.62584 169.071 7.33914C169.659 7.03811 169.953 6.50772 169.953 5.74797C169.953 5.03123 169.645 4.52234 169.028 4.22131C168.426 3.92028 167.638 3.76976 166.663 3.76976C166.247 3.76976 165.875 3.77693 165.545 3.79126C165.23 3.8056 164.957 3.8271 164.728 3.85577V7.76919Z" fill="#333333"/>
<path d="M146.597 9.14535C146.597 9.96243 146.697 10.7078 146.898 11.3816C147.098 12.041 147.385 12.6072 147.758 13.0803C148.145 13.539 148.611 13.8974 149.155 14.1554C149.7 14.4134 150.317 14.5424 151.005 14.5424C151.678 14.5424 152.288 14.4134 152.832 14.1554C153.377 13.8974 153.836 13.539 154.209 13.0803C154.596 12.6072 154.889 12.041 155.09 11.3816C155.291 10.7078 155.391 9.96243 155.391 9.14535C155.391 8.32826 155.291 7.59001 155.09 6.93061C154.889 6.25687 154.596 5.69064 154.209 5.23193C153.836 4.75888 153.377 4.39334 152.832 4.13531C152.288 3.87728 151.678 3.74827 151.005 3.74827C150.317 3.74827 149.7 3.87728 149.155 4.13531C148.611 4.39334 148.145 4.75888 147.758 5.23193C147.385 5.70498 147.098 6.2712 146.898 6.93061C146.697 7.59001 146.597 8.32826 146.597 9.14535ZM158.229 9.14535C158.229 10.4211 158.036 11.5464 157.649 12.5212C157.276 13.496 156.76 14.3131 156.101 14.9725C155.456 15.6175 154.696 16.1049 153.821 16.4346C152.947 16.7643 152.015 16.9292 151.026 16.9292C150.037 16.9292 149.098 16.7643 148.209 16.4346C147.335 16.1049 146.568 15.6175 145.909 14.9725C145.264 14.3131 144.748 13.496 144.36 12.5212C143.973 11.5464 143.78 10.4211 143.78 9.14535C143.78 7.86954 143.973 6.75142 144.36 5.79099C144.748 4.81622 145.271 3.99913 145.93 3.33972C146.604 2.68032 147.378 2.18577 148.252 1.85606C149.127 1.52636 150.051 1.36151 151.026 1.36151C152.001 1.36151 152.926 1.52636 153.8 1.85606C154.674 2.18577 155.434 2.68032 156.079 3.33972C156.739 3.99913 157.262 4.81622 157.649 5.79099C158.036 6.75142 158.229 7.86954 158.229 9.14535Z" fill="#333333"/>
<path d="M127.765 1.70555C128.081 2.25028 128.432 2.91685 128.819 3.70527C129.206 4.49368 129.6 5.32511 130.001 6.19953C130.403 7.05963 130.797 7.94122 131.184 8.84432C131.585 9.73308 131.951 10.5573 132.281 11.3171C132.61 10.5573 132.969 9.73308 133.356 8.84432C133.743 7.94122 134.137 7.05963 134.538 6.19953C134.94 5.32511 135.334 4.49368 135.721 3.70527C136.108 2.91685 136.459 2.25028 136.775 1.70555H139.226C139.355 2.795 139.477 3.95613 139.591 5.18892C139.706 6.40739 139.806 7.66169 139.892 8.95183C139.993 10.2276 140.079 11.5178 140.151 12.8222C140.237 14.1124 140.308 15.3738 140.366 16.6066H137.699C137.642 14.8721 137.57 13.0874 137.484 11.2526C137.413 9.41771 137.298 7.64019 137.14 5.92C136.983 6.2497 136.796 6.64391 136.581 7.10263C136.366 7.56134 136.137 8.06307 135.893 8.60779C135.649 9.13818 135.399 9.69007 135.14 10.2635C134.897 10.8369 134.653 11.3959 134.409 11.9406C134.18 12.471 133.965 12.9728 133.764 13.4458C133.564 13.9045 133.392 14.2987 133.248 14.6284H131.227C131.084 14.2987 130.912 13.8974 130.711 13.4243C130.51 12.9513 130.288 12.4495 130.044 11.9191C129.815 11.3744 129.571 10.8154 129.313 10.242C129.07 9.66857 128.826 9.11668 128.582 8.58629C128.339 8.0559 128.109 7.56134 127.894 7.10263C127.679 6.62958 127.493 6.23537 127.335 5.92C127.177 7.64019 127.056 9.41771 126.97 11.2526C126.898 13.0874 126.833 14.8721 126.776 16.6066H124.11C124.167 15.3738 124.232 14.098 124.303 12.7792C124.389 11.4604 124.475 10.156 124.561 8.86582C124.662 7.56134 124.769 6.29988 124.884 5.08141C124.999 3.86295 125.12 2.73766 125.249 1.70555H127.765Z" fill="#333333"/>
<path d="M114.839 16.6066H112.13V1.70555H121.591V4.0278H114.839V16.6066Z" fill="#333333"/>
<path d="M96.6651 9.14535C96.6651 9.96243 96.7655 10.7078 96.9662 11.3816C97.1668 12.041 97.4535 12.6072 97.8263 13.0803C98.2133 13.539 98.6792 13.8974 99.2239 14.1554C99.7686 14.4134 100.385 14.5424 101.073 14.5424C101.747 14.5424 102.356 14.4134 102.901 14.1554C103.446 13.8974 103.904 13.539 104.277 13.0803C104.664 12.6072 104.958 12.041 105.159 11.3816C105.359 10.7078 105.46 9.96243 105.46 9.14535C105.46 8.32826 105.359 7.59001 105.159 6.93061C104.958 6.25687 104.664 5.69064 104.277 5.23193C103.904 4.75888 103.446 4.39334 102.901 4.13531C102.356 3.87728 101.747 3.74827 101.073 3.74827C100.385 3.74827 99.7686 3.87728 99.2239 4.13531C98.6792 4.39334 98.2133 4.75888 97.8263 5.23193C97.4535 5.70498 97.1668 6.2712 96.9662 6.93061C96.7655 7.59001 96.6651 8.32826 96.6651 9.14535ZM108.298 9.14535C108.298 10.4211 108.104 11.5464 107.717 12.5212C107.345 13.496 106.829 14.3131 106.169 14.9725C105.524 15.6175 104.764 16.1049 103.89 16.4346C103.015 16.7643 102.084 16.9292 101.095 16.9292C100.105 16.9292 99.1666 16.7643 98.2778 16.4346C97.4034 16.1049 96.6365 15.6175 95.9771 14.9725C95.332 14.3131 94.8159 13.496 94.4289 12.5212C94.0418 11.5464 93.8483 10.4211 93.8483 9.14535C93.8483 7.86954 94.0418 6.75142 94.4289 5.79099C94.8159 4.81622 95.3392 3.99913 95.9986 3.33972C96.6723 2.68032 97.4464 2.18577 98.3208 1.85606C99.1952 1.52636 100.12 1.36151 101.095 1.36151C102.069 1.36151 102.994 1.52636 103.868 1.85606C104.743 2.18577 105.503 2.68032 106.148 3.33972C106.807 3.99913 107.33 4.81622 107.717 5.79099C108.104 6.75142 108.298 7.86954 108.298 9.14535Z" fill="#333333"/>
<path d="M87.317 1.70555H90.0263V16.6066H87.317V10.0054H80.8448V16.6066H78.1355V1.70555H80.8448V7.66169H87.317V1.70555Z" fill="#333333"/>
<path d="M210.403 34.7275H207.682V40.1708H206.916V34.0795H210.403V34.7275Z" fill="#333333"/>
<path d="M199.87 39.0751C199.941 39.13 200.027 39.189 200.129 39.2518C200.239 39.3146 200.365 39.3735 200.506 39.4285C200.648 39.4835 200.801 39.5306 200.966 39.5699C201.131 39.6013 201.304 39.617 201.484 39.617C201.861 39.617 202.176 39.5542 202.427 39.4285C202.686 39.295 202.894 39.1183 203.051 38.8983C203.208 38.6705 203.322 38.4074 203.393 38.1089C203.464 37.8026 203.499 37.4806 203.499 37.1428C203.499 36.3416 203.299 35.729 202.898 35.3048C202.498 34.8728 201.967 34.6568 201.308 34.6568C200.931 34.6568 200.624 34.6764 200.389 34.7157C200.161 34.7471 199.988 34.7825 199.87 34.8217V39.0751ZM199.87 42.3505H199.104V34.2915C199.332 34.213 199.623 34.1384 199.976 34.0677C200.33 33.997 200.777 33.9616 201.319 33.9616C201.767 33.9616 202.172 34.0363 202.533 34.1855C202.902 34.3269 203.216 34.535 203.476 34.8099C203.743 35.0849 203.947 35.4187 204.088 35.8114C204.237 36.2042 204.312 36.648 204.312 37.1428C204.312 37.6062 204.249 38.0343 204.124 38.4271C204.006 38.8119 203.829 39.1458 203.593 39.4285C203.358 39.7034 203.067 39.9194 202.721 40.0765C202.384 40.2336 201.995 40.3122 201.555 40.3122C201.154 40.3122 200.805 40.2572 200.506 40.1472C200.216 40.0294 200.004 39.9194 199.87 39.8173V42.3505Z" fill="#333333"/>
<path d="M194.243 40.3004C193.983 39.8213 193.732 39.3225 193.489 38.8041C193.253 38.2857 193.029 37.7633 192.817 37.2371C192.613 36.7029 192.424 36.1728 192.251 35.6465C192.079 35.1124 191.929 34.59 191.804 34.0795H192.617C192.703 34.4565 192.813 34.8649 192.947 35.3048C193.08 35.7368 193.229 36.1845 193.394 36.648C193.567 37.1114 193.756 37.5866 193.96 38.0736C194.164 38.5606 194.384 39.0397 194.62 39.511C194.792 39.024 194.946 38.5645 195.079 38.1325C195.213 37.7005 195.334 37.2724 195.444 36.8483C195.562 36.4162 195.672 35.9764 195.774 35.5287C195.884 35.0809 195.998 34.5979 196.116 34.0795H196.882C196.63 35.2184 196.344 36.3259 196.022 37.402C195.7 38.4781 195.35 39.4639 194.973 40.3593C194.824 40.7128 194.671 41.0152 194.514 41.2665C194.357 41.5257 194.18 41.7378 193.983 41.9028C193.795 42.0677 193.571 42.1895 193.312 42.268C193.061 42.3466 192.762 42.3858 192.416 42.3858C192.22 42.3858 192.039 42.3623 191.874 42.3151C191.717 42.268 191.619 42.2327 191.58 42.2091L191.733 41.5729C191.764 41.5964 191.851 41.6279 191.992 41.6671C192.142 41.7143 192.295 41.7378 192.452 41.7378C192.672 41.7378 192.868 41.7143 193.041 41.6671C193.222 41.62 193.383 41.5375 193.524 41.4197C193.665 41.3097 193.791 41.1644 193.901 40.9838C194.019 40.8031 194.133 40.5753 194.243 40.3004Z" fill="#333333"/>
<path d="M185.536 39.0751C185.606 39.13 185.693 39.189 185.795 39.2518C185.905 39.3146 186.03 39.3735 186.172 39.4285C186.313 39.4835 186.466 39.5306 186.631 39.5699C186.796 39.6013 186.969 39.617 187.15 39.617C187.527 39.617 187.841 39.5542 188.092 39.4285C188.352 39.295 188.56 39.1183 188.717 38.8983C188.874 38.6705 188.988 38.4074 189.058 38.1089C189.129 37.8026 189.164 37.4806 189.164 37.1428C189.164 36.3416 188.964 35.729 188.564 35.3048C188.163 34.8728 187.633 34.6568 186.973 34.6568C186.596 34.6568 186.29 34.6764 186.054 34.7157C185.826 34.7471 185.653 34.7825 185.536 34.8217V39.0751ZM185.536 42.3505H184.77V34.2915C184.998 34.213 185.288 34.1384 185.642 34.0677C185.995 33.997 186.443 33.9616 186.985 33.9616C187.433 33.9616 187.837 34.0363 188.198 34.1855C188.568 34.3269 188.882 34.535 189.141 34.8099C189.408 35.0849 189.612 35.4187 189.754 35.8114C189.903 36.2042 189.977 36.648 189.977 37.1428C189.977 37.6062 189.915 38.0343 189.789 38.4271C189.671 38.8119 189.494 39.1458 189.259 39.4285C189.023 39.7034 188.732 39.9194 188.387 40.0765C188.049 40.2336 187.66 40.3122 187.22 40.3122C186.82 40.3122 186.47 40.2572 186.172 40.1472C185.881 40.0294 185.669 39.9194 185.536 39.8173V42.3505Z" fill="#333333"/>
<path d="M181.048 35.0574C180.812 35.3402 180.537 35.6975 180.223 36.1296C179.917 36.5616 179.603 37.0171 179.281 37.4963C178.966 37.9754 178.664 38.4506 178.373 38.9219C178.083 39.3932 177.831 39.8095 177.619 40.1708H176.901V34.0795H177.655V38.9573C177.843 38.6195 178.075 38.2307 178.35 37.7908C178.633 37.3431 178.931 36.8954 179.245 36.4477C179.559 35.9921 179.874 35.5562 180.188 35.1399C180.51 34.7236 180.808 34.3701 181.083 34.0795H181.802V40.1708H181.048V35.0574Z" fill="#333333"/>
<path d="M171.987 37.4138C171.814 37.6416 171.642 37.8812 171.469 38.1325C171.296 38.3839 171.127 38.6313 170.962 38.8748C170.805 39.1183 170.66 39.3539 170.526 39.5817C170.393 39.8016 170.279 39.998 170.185 40.1708H169.395C169.717 39.566 170.055 39.0044 170.408 38.486C170.762 37.9597 171.123 37.4452 171.492 36.9425L169.513 34.0795H170.408L171.987 36.4123L173.59 34.0795H174.426L172.482 36.8954C172.647 37.1153 172.824 37.3549 173.012 37.6141C173.201 37.8733 173.389 38.1443 173.578 38.4271C173.766 38.702 173.947 38.9887 174.12 39.2871C174.3 39.5856 174.465 39.8802 174.615 40.1708H173.79C173.696 39.998 173.582 39.8016 173.448 39.5817C173.315 39.3539 173.165 39.1183 173 38.8748C172.843 38.6313 172.674 38.3839 172.494 38.1325C172.321 37.8812 172.152 37.6416 171.987 37.4138Z" fill="#333333"/>
<path d="M162.733 35.0574C162.498 35.3402 162.223 35.6976 161.908 36.1296C161.602 36.5616 161.288 37.0172 160.966 37.4963C160.652 37.9754 160.349 38.4506 160.059 38.9219C159.768 39.3932 159.517 39.8095 159.305 40.1708H158.586V34.0795H159.34V38.9573C159.529 38.6195 159.76 38.2307 160.035 37.7908C160.318 37.3431 160.616 36.8954 160.931 36.4477C161.245 35.9921 161.559 35.5562 161.873 35.1399C162.195 34.7236 162.494 34.3701 162.769 34.0795H163.487V40.1708H162.733V35.0574ZM161.037 33.0427C160.597 33.0427 160.235 32.9209 159.953 32.6774C159.67 32.4339 159.489 32.0883 159.411 31.6406L160.035 31.4756C160.082 31.7427 160.184 31.9626 160.341 32.1354C160.506 32.3004 160.738 32.3829 161.037 32.3829C161.335 32.3829 161.563 32.3004 161.72 32.1354C161.885 31.9626 161.991 31.7427 162.038 31.4756L162.663 31.6406C162.584 32.0883 162.403 32.4339 162.121 32.6774C161.838 32.9209 161.476 33.0427 161.037 33.0427Z" fill="#333333"/>
<path d="M154.864 35.0574C154.628 35.3402 154.354 35.6975 154.039 36.1296C153.733 36.5616 153.419 37.0171 153.097 37.4963C152.783 37.9754 152.48 38.4506 152.19 38.9219C151.899 39.3932 151.648 39.8095 151.436 40.1708H150.717V34.0795H151.471V38.9573C151.659 38.6195 151.891 38.2307 152.166 37.7908C152.449 37.3431 152.747 36.8954 153.061 36.4477C153.376 35.9921 153.69 35.5562 154.004 35.1399C154.326 34.7236 154.625 34.3701 154.899 34.0795H155.618V40.1708H154.864V35.0574Z" fill="#333333"/>
<path d="M143.814 40.1708V34.0795H144.58V36.8954C144.8 36.6833 145.043 36.4477 145.31 36.1885C145.585 35.9214 145.852 35.6583 146.112 35.3991C146.371 35.132 146.61 34.8846 146.83 34.6568C147.058 34.4211 147.239 34.2287 147.372 34.0795H148.291C148.111 34.2837 147.895 34.5154 147.643 34.7746C147.392 35.026 147.133 35.2812 146.866 35.5404C146.607 35.7997 146.351 36.051 146.1 36.2945C145.856 36.538 145.64 36.7461 145.452 36.919C145.719 37.0918 146.002 37.3078 146.3 37.567C146.599 37.8183 146.885 38.0932 147.16 38.3917C147.443 38.6823 147.702 38.9847 147.938 39.2989C148.181 39.6053 148.386 39.8959 148.551 40.1708H147.643C147.455 39.8802 147.231 39.5856 146.972 39.2871C146.72 38.9887 146.453 38.7059 146.171 38.4388C145.896 38.1639 145.617 37.9165 145.334 37.6966C145.059 37.4766 144.808 37.2999 144.58 37.1664V40.1708H143.814Z" fill="#333333"/>
<path d="M139.974 40.3004C139.502 40.3004 139.086 40.2258 138.725 40.0766C138.363 39.9273 138.061 39.7153 137.818 39.4403C137.582 39.1576 137.401 38.8237 137.276 38.4389C137.15 38.0461 137.087 37.6141 137.087 37.1428C137.087 36.6637 137.15 36.2278 137.276 35.835C137.409 35.4423 137.598 35.1045 137.841 34.8218C138.085 34.539 138.379 34.323 138.725 34.1738C139.07 34.0167 139.459 33.9381 139.891 33.9381C140.221 33.9381 140.527 33.9656 140.81 34.0206C141.101 34.0756 141.325 34.1463 141.482 34.2327L141.281 34.8925C141.124 34.8139 140.948 34.7511 140.751 34.7039C140.555 34.6568 140.292 34.6333 139.962 34.6333C139.286 34.6333 138.772 34.8532 138.418 35.2931C138.073 35.7251 137.9 36.3417 137.9 37.1428C137.9 37.5042 137.939 37.838 138.018 38.1443C138.096 38.4428 138.222 38.702 138.395 38.9219C138.576 39.134 138.803 39.3029 139.078 39.4286C139.361 39.5464 139.703 39.6053 140.103 39.6053C140.433 39.6053 140.708 39.5699 140.928 39.4993C141.156 39.4207 141.321 39.3539 141.423 39.299L141.588 39.9588C141.446 40.0373 141.223 40.1119 140.916 40.1826C140.618 40.2612 140.304 40.3004 139.974 40.3004Z" fill="#333333"/>
<path d="M129.69 37.1193C129.69 36.5852 129.764 36.1217 129.913 35.729C130.071 35.3284 130.271 34.9946 130.514 34.7275C130.766 34.4605 131.049 34.2641 131.363 34.1384C131.685 34.0049 132.015 33.9381 132.352 33.9381C133.099 33.9381 133.692 34.1816 134.131 34.6686C134.579 35.1556 134.803 35.9057 134.803 36.919C134.803 36.9818 134.799 37.0447 134.791 37.1075C134.791 37.1703 134.787 37.2292 134.779 37.2842H130.503C130.526 38.0304 130.711 38.6038 131.056 39.0044C131.402 39.405 131.952 39.6053 132.706 39.6053C133.122 39.6053 133.452 39.566 133.696 39.4875C133.939 39.4089 134.116 39.3422 134.226 39.2872L134.367 39.947C134.257 40.0098 134.049 40.0844 133.743 40.1708C133.444 40.2572 133.091 40.3004 132.682 40.3004C132.148 40.3004 131.693 40.2219 131.316 40.0648C130.939 39.9077 130.628 39.6878 130.385 39.405C130.141 39.1222 129.965 38.7884 129.855 38.4035C129.745 38.0108 129.69 37.5827 129.69 37.1193ZM134.014 36.6362C133.998 36 133.849 35.5051 133.566 35.1517C133.283 34.7982 132.883 34.6215 132.364 34.6215C132.089 34.6215 131.842 34.6765 131.622 34.7864C131.41 34.8964 131.221 35.0456 131.056 35.2341C130.899 35.4148 130.774 35.6269 130.679 35.8704C130.593 36.1139 130.542 36.3691 130.526 36.6362H134.014Z" fill="#333333"/>
<path d="M122.566 34.0795H123.332V35.729C123.332 36.2945 123.458 36.6833 123.709 36.8954C123.968 37.1075 124.338 37.2135 124.817 37.2135C125.217 37.2135 125.528 37.1939 125.748 37.1546C125.975 37.1153 126.168 37.0682 126.325 37.0132V34.0795H127.091V40.1708H126.325V37.6612C126.27 37.6769 126.187 37.7005 126.077 37.7319C125.975 37.7555 125.854 37.779 125.712 37.8026C125.571 37.8262 125.418 37.8497 125.253 37.8733C125.096 37.889 124.935 37.8969 124.77 37.8969C124.432 37.8969 124.126 37.8615 123.851 37.7908C123.584 37.7201 123.352 37.6023 123.156 37.4374C122.967 37.2724 122.822 37.0564 122.72 36.7893C122.617 36.5144 122.566 36.1767 122.566 35.7761V34.0795Z" fill="#333333"/>
<path d="M119.292 35.0574C119.057 35.3402 118.782 35.6975 118.468 36.1296C118.161 36.5616 117.847 37.0171 117.525 37.4963C117.211 37.9754 116.908 38.4506 116.618 38.9219C116.327 39.3932 116.076 39.8095 115.864 40.1708H115.145V34.0795H115.899V38.9573C116.088 38.6195 116.319 38.2307 116.594 37.7908C116.877 37.3431 117.175 36.8954 117.49 36.4477C117.804 35.9921 118.118 35.5562 118.432 35.1399C118.754 34.7236 119.053 34.3701 119.328 34.0795H120.046V40.1708H119.292V35.0574Z" fill="#333333"/>
<path d="M113.017 34.0795V34.7275H111.014V40.1708H110.248V34.7275H108.257V34.0795H113.017Z" fill="#333333"/>
<path d="M105.081 40.3004C104.609 40.3004 104.193 40.2258 103.832 40.0766C103.47 39.9273 103.168 39.7153 102.925 39.4403C102.689 39.1576 102.508 38.8237 102.383 38.4389C102.257 38.0461 102.194 37.6141 102.194 37.1428C102.194 36.6637 102.257 36.2278 102.383 35.835C102.516 35.4423 102.705 35.1045 102.948 34.8218C103.192 34.539 103.486 34.323 103.832 34.1738C104.177 34.0167 104.566 33.9381 104.998 33.9381C105.328 33.9381 105.634 33.9656 105.917 34.0206C106.208 34.0756 106.432 34.1463 106.589 34.2327L106.389 34.8925C106.231 34.8139 106.055 34.7511 105.858 34.7039C105.662 34.6568 105.399 34.6333 105.069 34.6333C104.393 34.6333 103.879 34.8532 103.525 35.2931C103.18 35.7251 103.007 36.3417 103.007 37.1428C103.007 37.5042 103.046 37.838 103.125 38.1443C103.203 38.4428 103.329 38.702 103.502 38.9219C103.683 39.134 103.91 39.3029 104.185 39.4286C104.468 39.5464 104.81 39.6053 105.21 39.6053C105.54 39.6053 105.815 39.5699 106.035 39.4993C106.263 39.4207 106.428 39.3539 106.53 39.299L106.695 39.9588C106.553 40.0373 106.33 40.1119 106.023 40.1826C105.725 40.2612 105.411 40.3004 105.081 40.3004Z" fill="#333333"/>
<path d="M97.5426 39.6171C97.8411 39.6171 98.1003 39.6092 98.3203 39.5935C98.548 39.5699 98.7405 39.5425 98.8976 39.511V37.3667C98.8112 37.3274 98.6737 37.2882 98.4852 37.2489C98.2967 37.2017 98.0375 37.1782 97.7076 37.1782C97.5191 37.1782 97.3227 37.1939 97.1185 37.2253C96.9143 37.2489 96.7257 37.3078 96.5529 37.402C96.3801 37.4884 96.2388 37.6102 96.1288 37.7673C96.0188 37.9244 95.9638 38.1325 95.9638 38.3917C95.9638 38.6195 95.9992 38.812 96.0699 38.9691C96.1484 39.1262 96.2545 39.2518 96.388 39.3461C96.5294 39.4403 96.6943 39.511 96.8828 39.5582C97.0792 39.5974 97.2991 39.6171 97.5426 39.6171ZM97.4719 33.9381C97.8725 33.9381 98.2103 33.997 98.4852 34.1148C98.768 34.2248 98.9958 34.3819 99.1686 34.5861C99.3414 34.7825 99.467 35.0181 99.5456 35.2931C99.6241 35.568 99.6634 35.8664 99.6634 36.1885V40.0294C99.5849 40.053 99.471 40.0805 99.3217 40.1119C99.1725 40.1355 98.9997 40.163 98.8033 40.1944C98.607 40.2258 98.387 40.2494 98.1435 40.2651C97.9079 40.2887 97.6644 40.3004 97.413 40.3004C97.091 40.3004 96.7925 40.2651 96.5176 40.1944C96.2505 40.1237 96.0149 40.0137 95.8107 39.8645C95.6143 39.7074 95.4572 39.511 95.3394 39.2754C95.2294 39.0319 95.1744 38.7373 95.1744 38.3917C95.1744 38.0618 95.2373 37.7791 95.363 37.5434C95.4886 37.3078 95.6654 37.1153 95.8931 36.9661C96.1209 36.809 96.3919 36.6951 96.7061 36.6244C97.0203 36.5537 97.362 36.5184 97.7312 36.5184C97.8411 36.5184 97.955 36.5262 98.0728 36.542C98.1985 36.5498 98.3163 36.5655 98.4263 36.5891C98.5441 36.6048 98.6423 36.6244 98.7208 36.648C98.8072 36.6637 98.8662 36.6794 98.8976 36.6951V36.3181C98.8976 36.106 98.8819 35.9018 98.8504 35.7054C98.819 35.5012 98.7483 35.3205 98.6384 35.1634C98.5363 34.9985 98.387 34.8689 98.1907 34.7746C98.0021 34.6725 97.7508 34.6215 97.4366 34.6215C96.9889 34.6215 96.6551 34.6529 96.4351 34.7157C96.2152 34.7786 96.0542 34.8296 95.9521 34.8689L95.846 34.1973C95.9795 34.1345 96.1838 34.0756 96.4587 34.0206C96.7415 33.9656 97.0792 33.9381 97.4719 33.9381Z" fill="#333333"/>
<path d="M89.6478 34.7275V34.9749C89.6478 35.2105 89.6439 35.4698 89.636 35.7525C89.6282 36.0274 89.6124 36.3102 89.5889 36.6008C89.5653 36.8915 89.526 37.1821 89.4711 37.4727C89.4239 37.7555 89.3611 38.0225 89.2826 38.2739C89.1961 38.5331 89.0862 38.7805 88.9527 39.0162C88.827 39.2439 88.6738 39.4482 88.4932 39.6288C88.3203 39.8016 88.1161 39.9469 87.8805 40.0648C87.6527 40.1747 87.3935 40.2454 87.1029 40.2768L86.9968 39.6406C87.3896 39.5542 87.7038 39.3932 87.9394 39.1575C88.1829 38.9219 88.3832 38.5881 88.5403 38.1561C88.6974 37.7241 88.7956 37.2292 88.8348 36.6715C88.882 36.106 88.9055 35.4894 88.9055 34.8217V34.0795H92.6522V40.1708H91.8864V34.7275H89.6478Z" fill="#333333"/>
<path d="M84.8339 32.0058V40.1708H84.0327V32.701H79.6852V40.1708H78.884V32.0058H84.8339Z" fill="#333333"/>
</svg>
