<svg width="20" height="15" viewBox="0 0 26 20" fill="none" xmlns="http://www.w3.org/2000/svg">
<path d="M25.0714 0H0.928571C0.414955 0 0 0.40625 0 0.909091V19.0909C0 19.5938 0.414955 20 0.928571 20H25.0714C25.585 20 26 19.5938 26 19.0909V0.909091C26 0.40625 25.585 0 25.0714 0ZM7.95089 4.09091C8.97522 4.09091 9.80804 4.90625 9.80804 5.90909C9.80804 6.91193 8.97522 7.72727 7.95089 7.72727C6.92656 7.72727 6.09375 6.91193 6.09375 5.90909C6.09375 4.90625 6.92656 4.09091 7.95089 4.09091ZM22.8632 16.5085C22.8209 16.5433 22.7675 16.5624 22.7123 16.5625H3.28482C3.15714 16.5625 3.05268 16.4602 3.05268 16.3352C3.05268 16.2812 3.07299 16.2301 3.10781 16.1875L8.04955 10.4489C8.1308 10.3523 8.2788 10.3409 8.37746 10.4205C8.38616 10.429 8.39777 10.4375 8.40647 10.4489L11.2908 13.8011L15.8786 8.47443C15.9598 8.37784 16.1078 8.36648 16.2065 8.44602C16.2152 8.45455 16.2268 8.46307 16.2355 8.47443L22.898 16.1903C22.9734 16.2841 22.9618 16.429 22.8632 16.5085Z" fill="white"/>
</svg>
