<?xml version="1.0" standalone="no"?>
<!DOCTYPE svg PUBLIC "-//W3C//DTD SVG 20010904//EN"
 "http://www.w3.org/TR/2001/REC-SVG-20010904/DTD/svg10.dtd">
<svg version="1.0" xmlns="http://www.w3.org/2000/svg"
 width="500.000000pt" height="500.000000pt" viewBox="0 0 500.000000 500.000000"
 preserveAspectRatio="xMidYMid meet">
<metadata>
Created by potrace 1.11, written by Peter Selinger 2001-2013
</metadata>
<g transform="translate(0.000000,500.000000) scale(0.100000,-0.100000)"
fill="#000000" stroke="none">
<path d="M2317 4888 c3 -32 3 -32 -8 -8 -11 24 -11 24 -19 5 -5 -11 -9 -40
-10 -65 -1 -34 -3 -40 -10 -25 -15 38 -23 -11 -17 -105 6 -93 44 -225 93 -322
33 -65 26 -60 -26 21 -47 73 -112 200 -129 254 -17 52 -34 48 -28 -8 3 -25 9
-50 12 -55 3 -6 4 -10 1 -10 -3 0 -14 17 -25 38 -19 34 -21 35 -27 15 -3 -13
-10 -20 -15 -17 -29 17 -30 -131 -3 -209 20 -55 92 -161 166 -242 68 -75 53
-66 -85 52 -48 41 -109 101 -134 134 -25 32 -50 59 -54 59 -9 0 -5 -57 7 -85
7 -19 7 -19 -13 -2 -26 23 -33 22 -33 -5 0 -13 -7 -31 -14 -41 -16 -21 -12
-82 7 -106 10 -14 10 -14 -5 -3 -10 8 -20 22 -23 33 -10 32 -23 21 -28 -23 -8
-66 -18 -113 -27 -118 -5 -3 -12 -21 -18 -40 -5 -19 -14 -34 -20 -33 -23 5
-17 -72 13 -166 41 -125 92 -233 160 -337 36 -56 50 -84 40 -84 -12 0 -14 -13
-9 -72 9 -118 59 -242 160 -399 l62 -96 -12 -48 -12 -47 -22 52 c-12 29 -22
60 -22 69 0 9 -5 23 -10 31 -13 20 -5 -131 11 -196 30 -126 133 -280 309 -464
30 -31 84 -105 67 -91 -12 9 -17 10 -17 2 0 -6 6 -14 13 -17 8 -3 24 -19 37
-37 17 -24 10 -20 -31 18 -29 28 -56 53 -59 56 -3 3 -52 42 -110 86 -58 45
-112 90 -120 100 -31 38 -51 74 -45 83 3 6 0 19 -8 31 -20 28 -28 10 -16 -34
10 -36 79 -115 149 -170 19 -16 8 -10 -25 11 -33 22 -71 52 -84 66 -14 14 -30
26 -38 26 -7 0 -13 11 -13 26 0 22 -2 25 -15 14 -8 -7 -15 -20 -16 -29 -1 -25
-27 50 -28 82 -1 31 -6 33 -29 11 -24 -24 -20 -111 7 -166 11 -24 21 -51 21
-59 0 -28 60 -106 122 -161 95 -82 112 -99 152 -152 66 -87 114 -200 129 -306
4 -24 -18 -122 -32 -148 -5 -9 -23 17 -51 72 -23 47 -46 83 -51 81 -4 -3 -11
0 -15 6 -4 8 -3 9 4 5 16 -9 15 -6 -5 40 -9 22 -20 57 -24 79 -7 36 -8 35 -5
-15 l3 -55 -18 40 c-10 22 -22 63 -25 90 -7 47 -8 48 -15 21 -5 -17 -6 -45 -3
-63 9 -59 -3 -35 -21 40 -20 83 -25 93 -35 78 -19 -32 3 -142 52 -256 16 -38
31 -77 31 -85 1 -9 16 -34 33 -55 42 -53 96 -145 92 -157 -2 -5 -30 30 -63 79
-66 98 -81 117 -72 91 9 -25 0 -22 -14 3 -6 12 -7 19 -1 15 6 -3 9 4 8 18 0
13 -4 22 -8 20 -4 -2 -10 1 -14 7 -5 8 -3 9 6 4 8 -5 11 -3 8 6 -3 8 -11 13
-17 12 -6 -2 -11 4 -11 12 0 7 -7 18 -16 23 -9 5 -27 39 -39 75 -12 37 -24 64
-27 62 -5 -5 15 -122 27 -161 4 -12 2 -25 -4 -28 -7 -5 -8 -1 -4 10 5 13 3 15
-7 9 -8 -5 -11 -4 -7 2 8 12 -40 123 -53 123 -16 0 49 -178 77 -211 7 -8 13
-19 13 -23 0 -5 20 -38 45 -75 25 -36 34 -52 19 -36 -91 102 -125 137 -130
132 -6 -5 84 -127 93 -127 2 0 1 5 -3 12 -4 7 -3 8 5 4 6 -4 9 -12 6 -17 -7
-10 19 -41 29 -34 3 3 4 2 1 -2 -3 -3 2 -15 12 -25 9 -10 11 -18 6 -18 -6 0
-16 7 -23 15 -13 16 -30 20 -30 7 0 -4 26 -23 57 -42 69 -42 78 -46 69 -31 -5
7 -1 9 8 5 16 -6 22 -35 10 -46 -15 -16 -229 165 -256 216 -6 11 14 -7 45 -40
30 -32 58 -57 61 -53 3 3 -19 31 -49 63 -30 31 -64 75 -77 97 -24 42 -44 53
-32 17 24 -80 99 -172 203 -250 31 -23 61 -46 66 -51 13 -11 -63 23 -150 67
-78 39 -146 56 -185 45 -31 -9 -28 -9 36 -12 38 -2 80 -15 157 -52 59 -28 106
-53 107 -56 0 -9 -77 1 -127 16 -24 7 -43 10 -43 5 0 -13 101 -38 160 -39 l35
-1 -35 -21 c-37 -23 -104 -89 -121 -120 -16 -31 2 -21 38 20 18 22 52 55 75
73 l43 33 -29 -38 c-16 -21 -26 -41 -22 -45 4 -4 12 1 17 11 6 9 21 29 34 45
l25 27 -28 -60 c-48 -107 -116 -227 -147 -259 -16 -18 -57 -68 -90 -110 -33
-43 -94 -122 -135 -175 -159 -203 -243 -319 -294 -406 -16 -27 -15 -27 11 5
24 29 181 233 295 382 25 32 39 43 46 36 6 -6 29 -11 52 -12 36 -1 46 4 74 37
l32 37 -6 -58 c-10 -96 -78 -213 -189 -322 -95 -93 -170 -129 -321 -154 -14
-2 0 -4 30 -3 180 2 354 144 476 387 23 46 33 77 28 88 -16 38 -19 31 96 217
48 77 110 184 137 238 49 95 50 98 57 67 3 -18 6 -50 6 -71 0 -22 5 -39 10
-39 12 0 13 61 1 113 -12 50 -4 47 21 -9 25 -58 32 -166 12 -212 -10 -25 -11
-33 -1 -30 40 14 42 169 3 250 l-22 47 27 -14 c15 -8 38 -28 53 -45 18 -22 26
-27 26 -15 0 9 -13 30 -29 46 -17 17 -24 29 -16 29 21 0 139 -64 184 -100 23
-19 43 -31 47 -28 8 8 -76 74 -136 107 l-53 29 34 7 c46 9 149 56 149 67 0 5
-14 1 -31 -8 -48 -24 -118 -44 -179 -49 l-55 -5 69 27 c38 15 65 28 59 30 -6
2 -34 -5 -64 -16 -29 -11 -55 -18 -57 -16 -12 11 130 65 194 74 39 6 91 20
115 31 24 11 34 19 22 16 -13 -2 -26 0 -29 5 -3 5 0 9 6 9 14 0 110 62 110 71
0 4 -13 2 -29 -4 -17 -6 -28 -14 -25 -19 3 -4 -2 -5 -11 -2 -10 4 -15 2 -13
-6 4 -16 -96 -56 -177 -72 -33 -6 -78 -16 -100 -21 -33 -9 -36 -12 -17 -15 22
-3 20 -5 -15 -24 -21 -11 -46 -30 -55 -41 -15 -18 -14 -12 4 39 l22 62 76 5
c41 3 82 7 90 9 85 21 118 33 114 39 -2 4 6 5 18 3 13 -2 17 -1 10 2 -8 4 3
16 31 34 58 36 83 58 113 98 38 49 16 38 -50 -24 -32 -31 -56 -52 -53 -46 10
15 -45 6 -127 -21 -43 -15 -88 -27 -100 -28 -20 0 -20 -1 -1 -9 16 -6 9 -9
-32 -15 -29 -4 -50 -11 -48 -16 3 -4 1 -10 -4 -13 -5 -4 -13 -1 -17 5 -10 17
22 37 54 32 23 -3 24 -2 7 6 -11 5 -18 10 -15 10 6 1 188 74 225 90 53 23 96
41 168 70 42 17 90 37 105 45 l27 15 -25 1 c-24 1 -24 2 8 17 44 23 41 37 -4
18 -49 -20 -52 -19 -23 13 49 53 72 102 48 102 -18 0 -70 -41 -64 -50 3 -5 1
-12 -5 -15 -6 -4 -9 -1 -8 7 2 9 -7 12 -32 10 l-35 -2 50 30 c28 16 62 40 77
52 27 24 64 98 48 98 -13 0 -72 -52 -65 -58 2 -3 15 3 27 14 12 10 18 13 14 6
-5 -7 -26 -26 -47 -42 -22 -15 -34 -30 -27 -32 13 -5 -160 -92 -202 -102 -14
-3 -8 2 13 12 22 9 35 21 30 26 -4 5 -3 6 4 2 15 -8 118 34 104 43 -5 4 10 19
35 35 24 15 42 31 39 36 -3 4 2 13 10 20 8 7 12 17 8 23 -3 5 -2 7 4 4 11 -7
70 49 62 58 -8 7 -90 -56 -84 -65 3 -4 -2 -13 -10 -20 -8 -7 -13 -16 -10 -20
3 -4 -3 -7 -13 -6 -10 0 -16 -5 -14 -14 2 -8 0 -12 -4 -8 -4 4 -31 -6 -59 -22
-29 -17 -56 -30 -61 -30 -5 1 4 8 19 16 16 9 27 18 24 21 -9 8 -67 -27 -64
-38 1 -7 -5 -14 -13 -16 -12 -4 -12 -3 -1 5 10 7 10 11 1 14 -7 2 12 17 40 32
29 16 50 24 46 17 -13 -20 8 -12 63 25 64 43 58 64 -12 37 -25 -10 -45 -22
-45 -27 0 -5 -49 -35 -109 -67 -59 -32 -101 -59 -93 -59 13 0 13 -1 0 -10 -8
-5 -19 -10 -25 -10 -5 0 -3 5 5 10 13 9 13 10 0 10 -17 0 95 67 169 100 34 16
47 26 39 32 -9 5 -9 8 -1 8 22 0 123 102 157 158 43 72 107 233 114 286 l5 41
-40 -50 c-69 -86 -147 -173 -178 -197 -18 -14 -10 0 23 36 29 32 71 90 93 129
22 40 45 79 50 87 57 96 69 118 69 133 0 11 9 50 21 88 12 38 19 79 16 89 -3
11 -2 18 2 15 10 -5 22 128 24 240 1 68 -1 80 -15 77 -13 -2 -15 4 -12 25 14
93 5 170 -26 221 -8 14 -10 9 -9 -23 2 -71 -1 -105 -8 -105 -5 0 -7 34 -5 76
3 53 0 74 -7 70 -6 -4 -11 -1 -11 6 0 7 -8 29 -18 48 -10 19 -19 55 -20 80 -3
53 -30 210 -40 225 -4 5 -7 14 -7 19 0 12 -25 21 -26 9 -3 -28 -11 -66 -19
-86 -6 -16 -8 -6 -6 38 3 76 -15 197 -31 202 -6 2 -19 -19 -28 -49 -78 -240
-186 -437 -343 -624 -31 -38 -31 -37 8 31 74 129 175 428 216 641 23 122 19
304 -7 288 -5 -3 -9 -1 -9 5 0 6 -8 18 -18 28 -10 10 -24 34 -32 53 -7 19 -21
42 -31 51 -10 9 -21 36 -25 60 -4 25 -16 53 -28 64 -12 11 -20 29 -18 40 2 14
-6 9 -30 -19 -18 -22 -41 -49 -50 -60 -10 -12 1 12 24 53 43 75 55 135 29 150
-7 4 -14 17 -16 27 -2 10 -4 21 -4 24 -1 3 -6 -2 -11 -10 -7 -11 -8 -6 -4 18
4 17 4 32 1 32 -3 0 -33 -38 -66 -84 -34 -46 -70 -90 -79 -97 -10 -8 -8 -3 4
11 38 44 104 155 94 158 -6 2 -10 12 -10 22 0 10 -4 21 -8 24 -11 7 -142 -81
-142 -96 0 -6 -3 -9 -6 -5 -6 5 50 79 93 125 13 13 17 32 8 32 -2 0 -20 -16
-40 -35 -19 -20 -35 -33 -35 -31 0 3 18 33 40 67 37 58 47 79 35 79 -2 0 -23
-24 -46 -52 -23 -29 -39 -44 -35 -33 7 24 45 197 46 208 0 18 -20 4 -26 -18
-8 -34 -18 -31 -29 7 -11 35 -35 50 -35 22 0 -16 -2 -15 -16 4 -9 13 -21 21
-27 19 -7 -2 -23 4 -36 14 -27 22 -51 25 -51 7 0 -9 -3 -9 -12 0 -19 19 -25
14 -21 -20z m90 -47 c8 -19 17 -44 19 -55 9 -43 24 -143 28 -186 7 -59 -9 -22
-18 42 -10 73 -44 197 -61 221 -8 12 -15 25 -15 30 0 18 33 -19 47 -52z m-13
-76 c9 -35 19 -81 22 -102 3 -21 8 -41 11 -45 2 -5 1 -8 -4 -8 -4 0 -20 49
-35 108 -14 59 -29 116 -33 127 -6 19 -6 19 8 2 8 -10 22 -47 31 -82z m66 51
c0 -26 -6 -18 -14 19 -5 22 -4 26 4 15 5 -8 10 -24 10 -34z m50 -46 c0 -66
-19 -108 -21 -45 0 22 -2 49 -4 60 -2 11 -1 31 2 43 9 39 23 5 23 -58z m-185
-190 c4 -25 5 -43 2 -40 -11 10 -18 65 -22 170 l-3 105 8 -95 c4 -52 11 -115
15 -140z m30 60 c6 -46 18 -116 50 -270 2 -14 -5 2 -16 35 -34 98 -56 218 -57
312 0 94 1 91 23 -77z m92 118 c-3 -8 -6 -5 -6 6 -1 11 2 17 5 13 3 -3 4 -12
1 -19z m-52 -133 c11 -71 13 -115 4 -115 -5 0 -9 3 -9 8 0 4 -7 50 -15 102
-18 118 -18 163 1 90 7 -30 16 -68 19 -85z m-92 -85 c5 -29 4 -28 -9 10 -8 25
-17 79 -19 120 l-4 75 13 -85 c7 -47 16 -101 19 -120z m170 112 c3 -17 2 -30
-2 -28 -4 3 -8 19 -9 37 -3 41 4 35 11 -9z m24 -44 c-3 -8 -6 -5 -6 6 -1 11 2
17 5 13 3 -3 4 -12 1 -19z m-64 -64 c3 -29 1 -57 -3 -64 -4 -6 -8 19 -9 56 -2
78 6 83 12 8z m-283 33 c0 -7 16 -40 35 -72 20 -32 48 -81 63 -109 14 -28 40
-69 56 -91 l30 -40 -33 30 c-45 41 -93 109 -129 180 -34 69 -47 115 -32 115 5
0 10 -6 10 -13z m331 -14 c-12 -20 -14 -14 -5 12 4 9 9 14 11 11 3 -2 0 -13
-6 -23z m-164 -198 c22 -33 49 -69 60 -80 62 -69 46 -78 -19 -11 -53 55 -101
132 -139 226 -40 98 -36 99 14 5 23 -44 61 -107 84 -140z m303 150 c-26 -38
-81 -107 -149 -187 -8 -9 -18 -15 -22 -12 -10 6 46 89 117 173 67 79 102 96
54 26z m-277 -5 c3 -11 1 -18 -4 -14 -5 3 -9 12 -9 20 0 20 7 17 13 -6z m193
-27 c-21 -27 -50 -68 -66 -93 -19 -29 -30 -39 -30 -27 0 11 10 33 22 50 21 32
99 117 106 117 2 0 -12 -21 -32 -47z m-419 5 c-3 -8 -6 -5 -6 6 -1 11 2 17 5
13 3 -3 4 -12 1 -19z m207 -4 c3 -8 2 -12 -4 -9 -6 3 -10 10 -10 16 0 14 7 11
14 -7z m86 -9 c0 -14 -2 -25 -4 -25 -2 0 -6 11 -8 25 -3 14 -1 25 3 25 5 0 9
-11 9 -25z m220 11 c0 -2 -8 -10 -17 -17 -16 -13 -17 -12 -4 4 13 16 21 21 21
13z m-402 -185 c20 -25 75 -84 122 -131 47 -47 72 -75 55 -63 -89 64 -218 211
-261 295 -35 69 -29 71 12 3 19 -33 52 -80 72 -104z m306 62 c-81 -107 -84
-111 -84 -92 0 7 17 32 38 54 21 22 52 59 71 83 18 23 35 42 37 42 3 0 -25
-39 -62 -87z m100 50 c-27 -37 -123 -153 -135 -163 -3 -3 -13 -16 -22 -30 -16
-23 -17 -23 -17 -4 0 12 17 37 38 56 37 35 114 122 139 158 8 11 17 20 20 20
3 0 -7 -17 -23 -37z m-74 -152 c-66 -85 -87 -107 -96 -98 -5 4 145 177 154
177 2 0 -24 -36 -58 -79z m-162 -172 c23 -20 42 -44 42 -55 0 -14 -11 -8 -47
26 -89 85 -163 165 -195 210 -23 32 -6 18 62 -50 52 -52 114 -111 138 -131z
m-332 129 c7 -14 41 -61 74 -105 l61 -78 -62 65 c-54 58 -139 170 -139 184 0
12 53 -41 66 -66z m703 19 c-15 -38 -104 -171 -209 -312 l-34 -46 -13 37 c-14
41 -20 30 61 120 20 23 44 50 52 60 25 30 4 -5 -53 -90 -29 -43 -53 -84 -53
-90 0 -14 6 -6 78 92 71 96 172 256 173 274 0 10 2 10 6 0 3 -7 -1 -27 -8 -45z
m-145 31 c-25 -43 -97 -127 -104 -123 -5 3 -16 -5 -24 -17 -9 -12 -19 -19 -22
-15 -11 10 28 48 42 43 8 -3 33 23 60 59 43 59 67 84 48 53z m65 -55 c-23 -32
-72 -94 -108 -138 -36 -44 -66 -82 -68 -84 -2 -2 -6 -2 -9 2 -3 3 33 52 81
109 48 57 99 119 114 140 14 20 28 35 29 33 2 -2 -15 -30 -39 -62z m-321 -19
c19 -16 40 -31 47 -34 8 -3 11 -10 7 -17 -6 -9 -30 10 -77 60 -39 39 -56 60
-40 46 17 -14 45 -39 63 -55z m-97 -173 c46 -45 110 -104 141 -130 32 -25 58
-52 58 -60 0 -11 -6 -9 -22 6 -13 11 -36 31 -53 44 -93 72 -325 333 -325 365
0 3 26 -28 59 -68 32 -40 96 -111 142 -157z m-213 89 c30 -41 66 -89 81 -106
14 -17 -1 -2 -34 32 -58 60 -117 147 -130 189 -4 11 1 7 11 -10 9 -16 42 -64
72 -105z m17 25 c70 -92 377 -405 397 -405 6 0 1 11 -12 25 -13 14 -19 25 -13
25 13 0 44 -35 42 -46 -1 -5 1 -17 6 -27 15 -36 -3 -26 -71 35 -175 160 -345
352 -418 472 -28 46 -8 22 69 -79z m259 -70 c43 -33 84 -65 92 -71 19 -15 38
-77 21 -67 -34 19 -171 140 -232 204 -94 99 -102 114 -24 48 35 -30 99 -81
143 -114z m86 115 c0 -5 -2 -10 -4 -10 -3 0 -8 5 -11 10 -3 6 -1 10 4 10 6 0
11 -4 11 -10z m439 -135 c-3 -113 -9 -175 -18 -175 -4 0 -4 24 -1 52 4 29 7
94 6 144 -1 51 2 87 7 81 4 -7 7 -52 6 -102z m-839 55 c17 -22 29 -40 27 -40
-3 0 -20 18 -37 40 -17 22 -29 40 -27 40 3 0 20 -18 37 -40z m-80 0 c12 -16
19 -30 16 -30 -2 0 -14 14 -26 30 -12 17 -19 30 -16 30 2 0 14 -13 26 -30z
m21 13 c13 -16 12 -17 -3 -4 -10 7 -18 15 -18 17 0 8 8 3 21 -13z m560 -1
c-11 -21 -41 -48 -41 -37 0 7 42 54 48 55 1 0 -2 -8 -7 -18z m303 -19 c-3 -21
-10 -42 -14 -47 -5 -5 -4 9 1 30 4 22 9 42 9 47 0 4 2 7 5 7 3 0 3 -17 -1 -37z
m-874 -61 c22 -34 38 -62 35 -62 -7 0 -85 113 -85 123 0 14 4 9 50 -61z m507
36 c-3 -7 -5 -2 -5 12 0 14 2 19 5 13 2 -7 2 -19 0 -25z m-355 -118 c110 -128
296 -311 371 -365 30 -22 58 -48 60 -58 13 -45 -400 354 -503 487 -81 105 -43
71 72 -64z m415 103 c-16 -28 -23 -33 -25 -20 -3 13 30 54 45 57 1 0 -8 -17
-20 -37z m202 5 c-22 -44 -174 -268 -181 -268 -5 0 -8 7 -8 15 0 8 3 15 8 15
4 0 47 59 97 130 88 128 107 152 84 108z m-379 -67 c14 -13 44 -36 67 -52 46
-32 82 -80 45 -60 -10 5 -59 50 -109 98 -79 77 -80 83 -3 14z m555 -41 c-21
-225 -56 -370 -153 -635 -49 -136 -71 -185 -72 -163 0 9 26 85 59 170 106 277
149 463 152 663 1 74 3 84 10 55 5 -19 7 -60 4 -90z m-910 90 c10 -11 16 -20
13 -20 -3 0 -13 9 -23 20 -10 11 -16 20 -13 20 3 0 13 -9 23 -20z m-29 -67
c60 -80 214 -274 224 -283 4 -3 37 -41 75 -85 75 -87 127 -145 190 -210 158
-166 165 -183 11 -30 -143 143 -390 434 -486 575 -14 19 -33 44 -43 55 -20 22
-40 55 -33 55 2 0 30 -35 62 -77z m195 -33 c83 -95 289 -302 332 -332 15 -11
27 -15 27 -9 0 5 -8 15 -17 20 -10 6 -13 11 -7 11 16 0 31 -21 31 -42 0 -20
-10 -14 -83 51 -141 125 -268 258 -353 371 -45 59 -21 35 70 -70z m85 68 l19
-23 -25 20 c-14 11 -27 21 -29 22 -2 2 0 3 6 3 5 0 18 -10 29 -22z m-178 -253
c65 -86 132 -168 237 -290 48 -56 269 -275 277 -275 15 0 8 10 -49 69 -126
129 -143 151 -43 56 58 -55 109 -103 115 -108 6 -5 5 -11 -4 -17 -12 -7 -12
-11 2 -25 22 -21 22 -42 1 -24 -22 18 -251 252 -299 304 -71 79 -217 255 -320
386 -76 98 -104 142 -105 163 0 25 7 18 57 -55 31 -46 90 -129 131 -184z m868
193 c-9 -92 -16 -142 -23 -148 -5 -5 0 62 13 173 9 75 17 54 10 -25z m-711
-163 c93 -91 259 -246 305 -283 14 -11 23 -23 20 -25 -17 -17 -351 308 -489
473 l-53 65 63 -70 c35 -38 104 -110 154 -160z m279 100 c22 -114 17 -89 70
-331 79 -365 115 -537 126 -609 6 -38 13 -83 16 -100 3 -16 7 -41 9 -55 2 -14
9 -70 16 -125 15 -111 19 -532 6 -635 -23 -193 -42 -289 -93 -477 -82 -297
-202 -549 -406 -849 -83 -123 -91 -131 -120 -130 -17 1 -33 7 -35 13 -3 7 20
45 51 85 30 40 80 114 111 163 63 99 195 361 195 386 0 8 4 19 9 25 23 23 132
372 155 494 2 14 11 61 20 105 8 44 18 100 21 125 4 25 9 59 12 75 2 17 6 46
9 65 8 50 13 693 6 705 -3 5 -7 25 -9 45 -3 34 -29 220 -38 270 -2 14 -9 54
-15 90 -6 36 -36 187 -66 336 -29 149 -56 289 -60 310 -3 21 -9 59 -14 82 -4
24 -4 40 0 35 4 -4 15 -48 24 -98z m-483 58 c13 -16 12 -17 -3 -4 -10 7 -18
15 -18 17 0 8 8 3 21 -13z m565 -47 c-24 -39 -45 -61 -50 -55 -6 5 -2 17 9 31
25 30 78 88 81 88 1 0 -17 -29 -40 -64z m87 17 c-60 -106 -108 -172 -116 -164
-5 5 12 36 40 73 26 35 59 80 72 101 33 54 37 46 4 -10z m81 20 c-18 -77 -166
-344 -172 -312 -2 9 22 55 51 103 30 47 70 120 88 161 19 41 35 75 37 75 1 0
-1 -12 -4 -27z m202 -55 c-6 -72 -64 -333 -72 -325 -3 2 4 42 15 88 21 90 28
127 37 199 4 25 8 52 10 60 1 8 3 23 3 33 1 9 4 17 7 17 3 0 3 -33 0 -72z
m-596 17 c19 -19 32 -35 29 -35 -3 0 -20 16 -39 35 -19 19 -32 35 -29 35 3 0
20 -16 39 -35z m395 -113 c-20 -64 -60 -164 -88 -222 -47 -96 -52 -102 -55
-72 -2 23 6 48 31 90 55 91 136 286 138 335 1 18 2 18 6 4 3 -10 -12 -70 -32
-135z m55 7 c-11 -57 -30 -133 -42 -169 -29 -91 -120 -279 -125 -258 -2 9 7
39 21 67 52 101 135 353 153 459 4 26 9 38 11 26 1 -12 -6 -68 -18 -125z
m-166 -4 c-57 -105 -70 -122 -75 -103 -4 14 0 33 10 48 51 80 127 188 130 185
2 -2 -28 -61 -65 -130z m-394 -65 c111 -110 269 -252 309 -277 1 -1 1 -7 0
-12 -2 -6 -15 -1 -29 11 -14 13 -48 41 -75 63 -99 79 -375 366 -375 389 0 3
17 -13 37 -36 21 -24 81 -86 133 -138z m-340 88 c100 -198 283 -463 455 -659
35 -41 34 -40 -10 6 -27 28 -66 70 -85 94 -19 24 -42 51 -51 60 -27 27 -164
216 -204 280 -36 59 -54 78 -41 46 8 -22 -2 -18 -15 6 -8 15 -8 19 0 15 17
-11 14 -1 -23 72 -39 77 -67 142 -61 142 2 0 18 -28 35 -62z m536 -25 c-2 -2
-26 17 -52 43 l-49 47 53 -43 c29 -23 51 -45 48 -47z m30 21 c11 -7 16 -15 13
-18 -4 -4 -26 12 -50 35 -24 23 -30 31 -13 18 17 -13 40 -29 50 -35z m354 -73
c-29 -123 -70 -241 -128 -361 -34 -72 -46 -89 -49 -73 -3 13 5 36 16 51 57 81
145 326 167 467 4 28 10 42 12 31 2 -10 -6 -62 -18 -115z m-779 -48 c105 -139
219 -280 294 -363 70 -78 237 -240 259 -252 12 -6 19 -8 16 -5 -3 3 -59 61
-125 129 -120 122 -202 213 -286 318 -61 75 -72 96 -18 35 95 -108 168 -185
297 -314 101 -100 135 -140 137 -161 1 -15 5 -33 9 -39 13 -21 -7 -11 -53 26
-142 115 -383 390 -557 638 -121 172 -108 166 27 -12z m20 110 c13 -16 12 -17
-3 -4 -10 7 -18 15 -18 17 0 8 8 3 21 -13z m591 -135 c-53 -110 -60 -120 -67
-96 -5 21 1 37 34 81 22 31 50 76 63 101 12 25 24 44 26 41 2 -2 -23 -59 -56
-127z m253 120 c-2 -7 -18 -74 -36 -148 -18 -74 -46 -178 -64 -230 -37 -110
-96 -253 -101 -247 -2 2 7 31 21 65 63 156 165 497 165 554 0 10 4 18 10 18 5
0 8 -6 5 -12z m-810 -28 c10 -11 16 -20 13 -20 -3 0 -13 9 -23 20 -10 11 -16
20 -13 20 3 0 13 -9 23 -20z m415 -106 c0 -9 -9 -2 -46 32 l-39 36 43 -32 c23
-17 42 -34 42 -36z m-60 21 c13 -14 21 -25 18 -25 -2 0 -15 11 -28 25 -13 14
-21 25 -18 25 2 0 15 -11 28 -25z m-384 -72 c79 -101 367 -451 414 -503 17
-19 61 -66 97 -103 50 -53 64 -73 59 -90 -3 -11 0 -27 6 -34 6 -8 8 -17 4 -21
-4 -4 -42 30 -84 74 -108 113 -164 174 -159 174 2 0 49 -45 106 -100 57 -55
108 -100 114 -100 5 0 8 2 6 4 -2 3 -58 60 -124 128 -204 208 -394 450 -509
646 -19 32 7 4 70 -75z m114 52 c13 -14 21 -25 18 -25 -2 0 -15 11 -28 25 -13
14 -21 25 -18 25 2 0 15 -11 28 -25z m926 -77 c-12 -152 -54 -268 -151 -418
-73 -113 -207 -280 -226 -280 -20 0 -6 22 52 77 172 163 274 378 314 656 10
77 18 53 11 -35z m-974 -189 c79 -104 290 -344 415 -472 58 -59 103 -110 100
-113 -3 -4 -1 -18 4 -32 l10 -26 -23 19 c-162 139 -231 215 -466 514 -72 91
-160 216 -186 263 -38 69 -31 61 39 -42 108 -160 325 -428 446 -550 90 -91
138 -134 144 -129 2 3 -46 57 -108 120 -133 135 -201 212 -328 374 -93 119
-209 286 -209 301 0 4 24 -28 53 -72 29 -44 78 -114 109 -155z m279 101 c45
-45 97 -93 116 -107 31 -24 60 -70 50 -80 -4 -3 -92 86 -207 210 -77 83 -53
70 41 -23z m243 -3 c-14 -37 -30 -64 -35 -61 -5 3 -9 9 -9 14 0 10 64 119 67
116 2 -1 -9 -32 -23 -69z m213 41 c-3 -8 -6 -5 -6 6 -1 11 2 17 5 13 3 -3 4
-12 1 -19z m-326 -108 c5 0 13 -9 19 -20 18 -33 -2 -23 -57 30 -63 60 -70 76
-11 26 23 -20 45 -36 49 -36z m459 -9 c-42 -98 -111 -214 -235 -391 -48 -69
-61 -105 -20 -55 43 52 191 277 230 350 21 39 40 72 43 75 13 14 -15 -55 -58
-145 -50 -105 -114 -198 -189 -278 -50 -53 -54 -51 -65 25 -7 46 -6 49 46 110
29 35 66 79 81 98 16 19 -6 -16 -48 -79 -42 -62 -74 -115 -72 -118 18 -17 193
242 266 395 25 50 46 90 48 88 2 -2 -10 -35 -27 -75z m-170 -6 c-12 -36 -24
-64 -27 -62 -2 3 6 34 19 70 12 36 24 64 26 62 2 -2 -6 -34 -18 -70z m-469 38
c13 -16 12 -17 -3 -4 -10 7 -18 15 -18 17 0 8 8 3 21 -13z m370 -50 c-12 -20
-14 -14 -5 12 4 9 9 14 11 11 3 -2 0 -13 -6 -23z m-40 -117 c-26 -75 -28 -77
-34 -47 -5 25 0 44 25 88 18 31 33 52 35 47 1 -5 -10 -45 -26 -88z m516 -3
c-2 -16 -4 -5 -4 22 0 28 2 40 4 28 2 -13 2 -35 0 -50z m-422 5 c-69 -159 -86
-191 -97 -180 -8 8 -4 19 14 40 14 17 40 66 59 110 19 44 36 78 38 76 2 -2 -4
-23 -14 -46z m-687 -18 c-7 -10 -14 -17 -17 -15 -4 4 18 35 25 35 2 0 -1 -9
-8 -20z m997 -92 c-34 -102 -101 -238 -165 -332 -55 -82 -158 -206 -171 -206
-20 0 -6 27 32 65 120 119 260 356 310 523 7 23 14 40 17 38 2 -3 -8 -42 -23
-88z m89 55 c-2 -16 -6 -43 -9 -60 -14 -79 -141 -354 -215 -463 -44 -65 -144
-171 -179 -190 -30 -15 -28 14 2 34 50 35 132 125 182 201 81 121 145 272 211
493 7 23 13 12 8 -15z m-1078 8 c-9 -14 12 -63 24 -56 5 3 7 0 4 -9 -9 -23
169 -322 186 -311 4 3 14 -3 21 -13 13 -15 12 -16 -3 -3 -10 7 -18 10 -18 6 0
-13 183 -255 272 -360 9 -11 28 -33 41 -49 17 -19 25 -41 25 -69 1 -22 -3 -36
-7 -31 -116 136 -304 394 -288 394 3 0 47 -60 98 -132 96 -136 164 -218 181
-218 5 0 -8 20 -29 44 -32 37 -252 338 -332 456 -127 186 -211 360 -175 360 3
0 3 -4 0 -9z m99 -126 c91 -150 266 -397 315 -445 3 -3 27 -32 55 -65 27 -33
54 -63 59 -67 6 -4 8 -9 5 -12 -6 -6 -177 198 -287 342 -75 99 -149 216 -197
312 -38 77 -27 62 50 -65z m841 27 c-57 -137 -167 -315 -255 -413 -23 -25 -40
-38 -41 -29 0 8 15 31 33 50 90 96 190 255 258 408 43 98 47 86 5 -16z m204
26 c0 -38 -4 -57 -9 -48 -7 14 -3 110 5 110 2 0 4 -28 4 -62z m-1066 36 c3 -8
2 -12 -4 -9 -6 3 -10 10 -10 16 0 14 7 11 14 -7z m804 -41 c-13 -27 -41 -75
-62 -108 -47 -71 -195 -227 -195 -205 0 8 35 52 77 96 42 45 104 123 137 173
33 50 61 91 62 91 2 0 -7 -21 -19 -47z m-878 -18 c0 -5 -5 -3 -10 5 -5 8 -10
20 -10 25 0 6 5 3 10 -5 5 -8 10 -19 10 -25z m211 -135 c67 -91 170 -226 229
-300 105 -134 124 -163 113 -174 -10 -10 -221 255 -322 404 -86 128 -165 254
-149 240 3 -3 61 -79 129 -170z m790 133 c-12 -20 -14 -14 -5 12 4 9 9 14 11
11 3 -2 0 -13 -6 -23z m108 -20 c-17 -107 -84 -267 -164 -390 -53 -80 -219
-264 -258 -285 -23 -12 -38 0 -15 13 68 38 206 190 272 299 62 102 124 247
144 337 19 82 33 99 21 26z m-918 -25 c15 -28 5 -21 -21 15 -15 20 -17 27 -6
18 9 -8 22 -23 27 -33z m-62 -173 c39 -57 43 -65 33 -65 -12 0 -66 82 -120
181 -58 106 -52 112 9 9 28 -47 63 -103 78 -125z m721 113 c-39 -70 -133 -206
-192 -279 l-27 -34 -1 27 c0 19 13 39 46 70 49 46 115 134 157 209 36 67 51
89 55 84 2 -2 -15 -37 -38 -77z m357 60 c-3 -8 -6 -5 -6 6 -1 11 2 17 5 13 3
-3 4 -12 1 -19z m-83 -37 c-4 -17 -9 -30 -11 -27 -3 2 -2 19 2 36 9 41 17 33
9 -9z m-602 -69 c7 -24 3 -22 -35 18 -69 73 -75 86 -22 46 28 -21 53 -49 57
-64z m419 5 c-47 -101 -97 -178 -199 -305 -80 -99 -92 -111 -92 -90 1 7 30 45
66 83 85 91 172 219 219 323 21 45 40 81 42 79 2 -2 -14 -43 -36 -90z m104 21
c-31 -92 -83 -198 -141 -286 -63 -93 -229 -266 -247 -255 -6 4 3 16 24 32 62
46 146 135 193 205 44 65 119 212 162 318 25 62 31 53 9 -14z m105 -48 c-26
-97 -103 -277 -132 -305 -5 -5 10 31 35 80 51 101 79 180 98 273 7 34 16 62
20 62 4 0 -6 -49 -21 -110z m64 95 c-4 -8 -8 -15 -10 -15 -2 0 -4 7 -4 15 0 8
4 15 10 15 5 0 7 -7 4 -15z m-989 -15 c10 -11 16 -20 13 -20 -3 0 -13 9 -23
20 -10 11 -16 20 -13 20 3 0 13 -9 23 -20z m982 -32 c-3 -8 -6 -5 -6 6 -1 11
2 17 5 13 3 -3 4 -12 1 -19z m-937 -17 c0 -3 13 -20 28 -37 15 -17 47 -55 72
-85 78 -92 163 -180 168 -174 3 3 -10 22 -29 43 -74 80 -81 94 -23 43 l62 -52
0 -71 c0 -38 -3 -66 -7 -61 -26 30 -111 143 -111 147 0 3 23 -20 52 -50 77
-82 71 -56 -9 33 -61 68 -183 214 -222 266 -12 15 -12 17 3 11 9 -3 16 -9 16
-13z m839 -73 c-31 -97 -114 -260 -174 -339 -72 -95 -258 -269 -272 -255 -4 3
-4 7 -2 9 123 91 184 154 260 269 62 93 199 360 199 387 0 8 3 12 6 8 3 -3 -4
-38 -17 -79z m-389 -35 c-43 -50 -93 -94 -99 -87 -5 5 107 114 118 114 2 0 -6
-12 -19 -27z m490 -124 c-39 -116 -122 -299 -136 -299 -2 0 13 35 32 78 20 42
37 94 37 114 1 23 5 32 10 25 6 -8 7 -4 4 11 -3 12 -1 20 3 17 7 -4 29 58 57
160 l8 30 3 -36 c2 -20 -7 -65 -18 -100z m-369 -2 c-44 -66 -178 -213 -187
-205 -1 2 32 40 75 85 42 44 95 108 116 142 21 33 40 59 42 57 2 -2 -19 -37
-46 -79z m289 -12 c-71 -212 -220 -390 -432 -515 -63 -37 -45 0 19 40 140 87
322 307 395 480 39 92 49 89 18 -5z m-821 0 c90 -110 161 -196 186 -223 38
-43 70 -92 58 -92 -4 1 -44 46 -88 101 -44 55 -85 106 -90 112 -6 7 -39 50
-74 97 -53 73 -50 75 8 5z m-144 -25 c4 -19 20 -63 36 -97 15 -35 26 -63 24
-63 -2 0 -19 29 -39 64 -23 41 -38 82 -41 113 -4 52 8 42 20 -17z m-50 -25
c26 -72 81 -181 124 -245 46 -68 53 -80 49 -80 -9 0 -108 140 -135 190 -28 50
-53 119 -66 179 -9 37 8 11 28 -44z m95 20 c0 -5 -5 -3 -10 5 -5 8 -10 20 -10
25 0 6 5 3 10 -5 5 -8 10 -19 10 -25z m865 -15 c-9 -16 -18 -30 -21 -30 -2 0
2 14 11 30 9 17 18 30 21 30 2 0 -2 -13 -11 -30z m-820 -72 c14 -26 54 -87 90
-135 l65 -88 -54 59 c-50 55 -126 174 -141 221 -10 29 9 2 40 -57z m923 -29
c-42 -106 -96 -202 -159 -284 -57 -74 -149 -172 -149 -158 0 5 14 22 31 39 93
88 256 349 291 467 7 22 14 35 16 29 1 -5 -12 -48 -30 -93z m-858 -9 c67 -95
177 -229 207 -253 15 -12 21 -27 20 -47 -2 -29 -2 -29 -69 37 -37 37 -66 68
-64 70 2 2 28 -22 59 -54 73 -76 81 -66 10 12 -76 82 -185 232 -223 305 -18
36 -1 16 60 -70z m711 38 c-43 -69 -105 -149 -155 -200 -71 -74 -216 -183
-216 -163 0 8 4 15 9 15 19 0 139 97 209 169 40 42 94 106 119 143 47 69 72
94 34 36z m-41 -18 c-12 -16 -24 -30 -26 -30 -3 0 4 14 16 30 12 17 24 30 26
30 3 0 -4 -13 -16 -30z m206 -34 c-21 -49 -28 -46 -9 4 9 22 18 38 20 36 2 -2
-3 -20 -11 -40z m-932 -20 c39 -67 111 -154 197 -238 44 -42 79 -79 79 -83 0
-13 -149 137 -204 205 -51 62 -113 160 -103 160 3 0 17 -20 31 -44z m-70 18
c3 -8 2 -12 -4 -9 -6 3 -10 10 -10 16 0 14 7 11 14 -7z m766 -8 c0 -2 -8 -10
-17 -17 -16 -13 -17 -12 -4 4 13 16 21 21 21 13z m-120 -45 c-18 -25 -112
-118 -156 -154 -20 -17 -21 -17 -22 12 0 20 5 32 17 36 17 5 26 12 106 84 25
23 31 26 16 9 -14 -16 -22 -30 -19 -33 7 -8 59 55 54 64 -3 4 1 8 9 8 11 0 10
-6 -5 -26z m205 -77 c-63 -112 -123 -190 -200 -261 -83 -77 -195 -145 -195
-119 0 9 6 16 13 16 21 0 147 87 200 139 65 62 128 145 174 230 21 38 40 68
42 66 2 -2 -13 -34 -34 -71z m-495 50 c0 -8 -4 -12 -10 -9 -5 3 -10 10 -10 16
0 5 5 9 10 9 6 0 10 -7 10 -16z m591 -57 c-10 -9 -11 -8 -5 6 3 10 9 15 12 12
3 -3 0 -11 -7 -18z m-1112 -47 c0 -10 -3 -8 -9 5 -12 27 -12 43 0 25 5 -8 9
-22 9 -30z m1090 8 c-42 -81 -219 -294 -219 -264 0 5 10 18 23 30 37 35 112
128 156 194 42 62 62 82 40 40z m-1021 -159 c20 -24 44 -53 52 -64 16 -22 16
-22 -68 50 -35 31 -82 120 -82 156 0 14 10 1 30 -38 17 -33 47 -80 68 -104z
m429 -45 c4 3 -5 16 -18 28 -13 13 -37 39 -54 58 -22 25 -15 21 26 -15 47 -43
55 -55 57 -87 0 -21 -4 -41 -10 -44 -6 -4 -8 -2 -4 4 3 6 -13 30 -36 54 -54
54 -134 145 -158 179 -10 14 29 -22 86 -79 58 -57 108 -101 111 -98z m434 165
c-84 -115 -155 -180 -263 -243 -76 -44 -55 -16 30 41 77 52 181 147 229 211
37 47 40 39 4 -9z m-822 -116 c12 -13 18 -23 13 -23 -14 0 -70 84 -77 116 -5
20 1 13 18 -21 14 -27 34 -60 46 -72z m279 72 c-3 -3 -9 2 -12 12 -6 14 -5 15
5 6 7 -7 10 -15 7 -18z m287 5 c-3 -5 -16 -15 -28 -21 -19 -9 -19 -8 3 10 28
23 34 26 25 11z m123 -35 c-48 -46 -143 -115 -159 -115 -5 0 -9 7 -9 15 0 8
20 24 44 35 24 12 70 41 102 65 33 24 61 44 64 44 3 1 -16 -20 -42 -44z m-577
-102 c14 -13 32 -21 41 -18 16 6 96 -56 140 -110 30 -36 80 -133 76 -146 -2
-5 -26 26 -55 68 -65 97 -148 191 -159 180 -5 -5 -1 -13 8 -18 43 -24 204
-246 196 -270 -2 -7 -24 21 -48 62 -44 74 -237 279 -263 279 -7 0 29 -40 80
-88 104 -98 163 -173 199 -246 13 -28 19 -42 12 -32 -7 10 -31 46 -52 79 -22
33 -87 109 -145 170 -58 60 -105 114 -103 119 2 6 -5 20 -15 31 -21 25 45 -20
88 -60z m200 -92 c43 -44 78 -105 66 -117 -3 -3 -14 11 -25 33 -19 36 -96 115
-172 176 -26 21 -20 19 25 -9 33 -20 81 -57 106 -83z m-276 37 c147 -116 233
-234 281 -385 21 -70 1 -49 -24 24 -13 37 -39 92 -58 122 -35 56 -271 294
-284 286 -4 -2 -7 2 -7 10 0 9 5 11 11 6 6 -4 43 -33 81 -63z m824 34 c-106
-121 -178 -180 -295 -244 -94 -51 -90 -34 6 22 86 51 201 141 260 206 46 51
72 66 29 16z m77 -40 c-25 -38 -53 -76 -63 -83 -9 -8 1 11 24 41 22 30 48 69
59 87 10 18 20 31 22 28 2 -2 -16 -35 -42 -73z m-546 -37 c0 -16 -5 -12 -21
15 -12 19 -31 46 -42 60 -12 14 -3 7 21 -15 23 -21 42 -48 42 -60z m160 65
c-27 -21 -40 -25 -40 -11 0 5 12 14 28 19 39 15 40 14 12 -8z m170 -3 c0 -2
-17 -19 -37 -38 l-38 -34 34 38 c33 34 41 42 41 34z m-729 -24 c13 -16 12 -17
-3 -4 -17 13 -22 21 -14 21 2 0 10 -8 17 -17z m758 -5 c-2 -2 -17 -14 -34 -28
l-30 -25 29 32 c16 18 32 31 34 28 3 -3 3 -6 1 -7z m123 -26 c-36 -45 -125
-132 -167 -163 -16 -12 20 28 80 89 61 61 112 112 113 112 2 0 -10 -17 -26
-38z m-751 1 c13 -16 12 -17 -3 -4 -17 13 -22 21 -14 21 2 0 10 -8 17 -17z
m483 -24 c-46 -37 -94 -63 -101 -55 -3 3 9 13 27 23 18 10 46 28 64 40 47 32
54 27 10 -8z m300 -51 c-56 -92 -125 -155 -254 -233 -115 -68 -179 -111 -192
-130 -11 -15 -21 1 -14 22 3 11 30 29 59 42 128 56 313 207 397 323 47 67 50
52 4 -24z m-324 8 c0 -2 -18 -15 -40 -30 -25 -16 -40 -22 -40 -14 0 10 32 30
78 47 1 1 2 -1 2 -3z m40 -30 c0 -10 -122 -87 -128 -81 -4 4 -2 9 3 12 6 2 35
19 65 38 57 36 60 37 60 31z m65 -52 c-45 -40 -142 -102 -187 -119 -14 -6 -18
-2 -18 14 0 14 8 23 28 27 37 9 107 46 167 88 67 47 70 44 10 -10z m-15 -68
c0 -9 -190 -126 -205 -126 -19 0 19 38 51 49 20 7 62 29 93 47 59 35 61 36 61
30z m-349 -57 c11 -22 18 -48 16 -57 -3 -15 -5 -14 -11 3 -4 11 -16 39 -27 63
-24 54 -6 46 22 -9z m-58 -9 c3 -11 2 -18 -3 -15 -4 3 -10 14 -13 25 -3 11 -2
18 3 15 4 -3 10 -14 13 -25z m234 -6 c-3 -3 -12 -4 -19 -1 -8 3 -5 6 6 6 11 1
17 -2 13 -5z m-11 -69 c-11 -8 -25 -15 -30 -15 -6 1 0 7 14 15 32 19 40 18 16
0z m161 -17 c0 -7 -12 -14 -26 -15 l-26 -1 25 14 c14 7 25 13 26 14 0 0 1 -6
1 -12z m-555 -44 c-9 -16 -10 -14 -9 8 1 15 6 23 11 18 4 -4 4 -16 -2 -26z
m42 -10 c3 -8 2 -12 -4 -9 -6 3 -10 10 -10 16 0 14 7 11 14 -7z m173 -16 c-3
-7 -5 -2 -5 12 0 14 2 19 5 13 2 -7 2 -19 0 -25z m498 23 c-23 -21 -183 -96
-280 -130 -58 -21 -102 -41 -98 -45 4 -4 -1 -4 -12 0 -16 6 -3 16 65 47 76 36
318 136 330 137 2 0 0 -4 -5 -9z m44 -39 c-24 -26 -46 -47 -48 -45 -5 4 80 93
87 93 3 0 -15 -22 -39 -48z m-24 28 c-22 -36 -234 -139 -315 -153 -23 -4 -28
-3 -15 2 140 58 220 95 270 124 69 41 68 40 60 27z m-669 -73 c3 -10 26 -47
50 -83 24 -35 44 -70 44 -76 0 -7 -7 -2 -16 11 -12 17 -19 20 -24 10 -6 -9
-14 -2 -29 22 -12 19 -21 29 -21 24 0 -6 16 -34 36 -63 20 -30 33 -56 30 -60
-4 -3 -10 -1 -15 4 -17 18 -114 207 -104 201 6 -4 13 -2 15 4 2 6 9 -1 16 -16
7 -14 8 -23 2 -20 -15 9 -12 -9 6 -31 13 -16 15 -16 10 -1 -9 27 0 20 23 -19
12 -20 25 -34 28 -30 3 3 -5 23 -19 44 -14 21 -38 63 -52 92 -22 44 -23 50 -7
30 11 -14 23 -33 27 -43z m454 53 c-8 -5 -19 -10 -25 -10 -5 0 -3 5 5 10 8 5
20 10 25 10 6 0 3 -5 -5 -10z m-145 -10 c-27 -12 -43 -12 -25 0 8 5 22 9 30 9
10 0 8 -3 -5 -9z m-415 -140 c0 -3 -8 7 -18 23 -10 15 -22 24 -27 20 -4 -5 -5
-3 -1 4 4 7 0 29 -9 49 -8 20 -15 39 -15 43 1 7 70 -131 70 -139z m50 105 c0
-5 -5 -3 -10 5 -5 8 -10 20 -10 25 0 6 5 3 10 -5 5 -8 10 -19 10 -25z m420 9
l-25 -15 30 5 c20 4 7 -6 -39 -30 -37 -19 -70 -33 -73 -31 -10 11 10 57 26 57
14 0 14 2 1 10 -11 7 -5 8 19 3 20 -3 32 -2 29 3 -4 5 8 10 25 11 l32 2 -25
-15z m205 -64 c-3 -5 -14 -10 -23 -9 -14 0 -13 2 3 9 27 11 27 11 20 0z m-731
-16 c3 -8 2 -12 -4 -9 -6 3 -10 10 -10 16 0 14 7 11 14 -7z m55 -81 c21 -32
49 -69 61 -83 12 -14 33 -38 46 -55 36 -46 40 -22 4 32 l-32 48 37 -37 c30
-30 36 -43 31 -63 -4 -14 -10 -25 -15 -25 -4 0 -33 33 -63 73 -67 88 -121 167
-114 167 3 0 23 -26 45 -57z m601 47 c-8 -5 -19 -10 -25 -10 -5 0 -3 5 5 10 8
5 20 10 25 10 6 0 3 -5 -5 -10z m-120 -4 c0 -3 -24 -12 -52 -22 -29 -9 -57
-20 -63 -24 -23 -16 -44 -19 -38 -5 3 8 24 20 47 25 22 6 52 15 66 20 29 10
40 12 40 6z m-110 -10 c0 -2 -7 -7 -16 -10 -8 -3 -12 -2 -9 4 6 10 25 14 25 6z
m187 -2 c-1 -1 -42 -19 -92 -39 -49 -21 -95 -42 -100 -46 -6 -4 -24 -13 -40
-19 l-30 -11 25 23 c14 13 20 19 13 14 -8 -5 -16 -6 -19 -3 -9 8 35 29 46 22
6 -3 10 -2 10 3 0 6 7 13 16 16 8 3 12 2 9 -4 -3 -6 1 -7 9 -4 9 3 14 10 11
14 -2 4 3 7 13 7 25 -1 72 14 68 22 -2 3 11 6 30 7 19 0 33 0 31 -2z m-373
-73 c-6 -6 -24 19 -24 34 1 6 7 1 15 -9 8 -11 12 -22 9 -25z m426 3 c0 -3 -28
-18 -62 -33 -69 -31 -158 -54 -158 -40 0 5 11 9 25 9 25 0 116 31 163 56 31
16 32 16 32 8z m-140 -34 c-8 -5 -22 -9 -30 -9 -10 0 -8 3 5 9 27 12 43 12 25
0z m-97 -47 c-7 -2 -21 -2 -30 0 -10 3 -4 5 12 5 17 0 24 -2 18 -5z m191 -11
c2 -4 -7 -8 -22 -9 -24 -2 -24 -1 -7 7 11 5 21 9 22 9 1 1 4 -3 7 -7z m-764
-656 c0 -2 -8 -10 -17 -17 -16 -13 -17 -12 -4 4 13 16 21 21 21 13z"/>
<path d="M2625 2800 c3 -5 8 -10 11 -10 2 0 4 5 4 10 0 6 -5 10 -11 10 -5 0
-7 -4 -4 -10z"/>
<path d="M2854 2436 c-16 -14 -40 -34 -54 -45 -14 -11 -20 -20 -15 -21 11 0
114 89 104 90 -4 0 -20 -11 -35 -24z"/>
<path d="M2240 2413 c0 -20 282 -273 306 -273 13 0 -21 34 -91 89 -92 74 -131
108 -177 155 -21 22 -38 35 -38 29z"/>
<path d="M3065 1740 c-3 -6 1 -7 9 -4 18 7 21 14 7 14 -6 0 -13 -4 -16 -10z"/>
<path d="M2141 487 c-13 -21 -12 -21 5 -5 10 10 16 20 13 22 -3 3 -11 -5 -18
-17z"/>
<path d="M2105 433 c-43 -68 -113 -152 -164 -197 -49 -42 -84 -63 -181 -105
-23 -10 -22 -11 10 -5 90 15 193 94 285 219 51 69 80 115 72 115 -3 0 -13 -12
-22 -27z"/>
</g>
</svg>
